<svg width="29" height="29" viewBox="0 0 29 29" fill="none" xmlns="http://www.w3.org/2000/svg">
<path d="M28 14.5C28 7.04415 21.9558 1 14.5 1C7.04415 1 1 7.04415 1 14.5C1 21.9558 7.04415 28 14.5 28C21.9558 28 28 21.9558 28 14.5Z" stroke="#AAAFBE" stroke-width="2"/>
<path d="M7.51138 12.9862C7.184 12.0908 7.02031 11.6431 7.09011 11.3562C7.16645 11.0424 7.39227 10.7977 7.68091 10.7161C7.9448 10.6415 8.35531 10.8218 9.17635 11.1825C9.90256 11.5014 10.2657 11.6609 10.6068 11.652C10.9825 11.6423 11.3438 11.4934 11.6312 11.23C11.8923 10.9908 12.0674 10.6096 12.4176 9.84714L13.1895 8.16687C13.8342 6.76331 14.1565 6.06152 14.667 6.06152C15.1775 6.06152 15.4999 6.76331 16.1446 8.16687L16.9164 9.84714C17.2666 10.6096 17.4418 10.9908 17.7028 11.23C17.9902 11.4934 18.3515 11.6423 18.7272 11.652C19.0684 11.6609 19.4315 11.5014 20.1577 11.1825C20.9787 10.8218 21.3892 10.6415 21.6531 10.7161C21.9417 10.7977 22.1676 11.0424 22.2439 11.3562C22.3137 11.6431 22.15 12.0908 21.8226 12.9861L20.4154 16.835C19.8134 18.4814 19.5125 19.3047 18.8825 19.7697C18.2527 20.2348 17.4387 20.2348 15.8108 20.2348H13.5232C11.8953 20.2348 11.0813 20.2348 10.4514 19.7697C9.82158 19.3047 9.52059 18.4814 8.91861 16.835L7.51138 12.9862Z" fill="white" stroke="#AAAFBE" stroke-width="2" stroke-linecap="round" stroke-linejoin="round"/>
<path d="M9.81592 24.3691H19.5178" stroke="#AAAFBE" stroke-width="2" stroke-linecap="round"/>
</svg>
