<svg width="24" height="25" viewBox="0 0 24 25" fill="none" xmlns="http://www.w3.org/2000/svg">
<path d="M12 23C17.5228 23 22 18.5228 22 13C22 7.47715 17.5228 3 12 3C6.47715 3 2 7.47715 2 13C2 18.5228 6.47715 23 12 23Z" fill="#FFA902"/>
<path d="M18.9997 9.99982C18.9997 15.5227 14.5226 19.9998 8.99972 19.9998C7.14646 19.9998 5.41096 19.4957 3.92285 18.6171C5.74198 21.1043 8.68219 22.7198 11.9997 22.7198C17.5226 22.7198 21.9997 18.2426 21.9997 12.7198C21.9997 9.0502 20.0232 5.84226 17.0766 4.10254C18.2858 5.75592 18.9997 7.7945 18.9997 9.99982Z" fill="#F04400"/>
<ellipse cx="12" cy="19" rx="6" ry="4" fill="white"/>
<circle cx="12" cy="11" r="4" fill="white"/>
<path d="M18 20.7197C18 19.1284 17.3679 17.6023 16.2426 16.4771C15.1174 15.3519 13.5913 14.7197 12 14.7197M12 14.7197C10.4087 14.7197 8.88258 15.3519 7.75736 16.4771C6.63214 17.6023 6 19.1284 6 20.7197M12 14.7197C14.2091 14.7197 16 12.9289 16 10.7197C16 8.51059 14.2091 6.71973 12 6.71973C9.79086 6.71973 8 8.51059 8 10.7197C8 12.9289 9.79086 14.7197 12 14.7197ZM22 12.7197C22 18.2426 17.5228 22.7197 12 22.7197C6.47715 22.7197 2 18.2426 2 12.7197C2 7.19688 6.47715 2.71973 12 2.71973C17.5228 2.71973 22 7.19688 22 12.7197Z" stroke="black" stroke-width="2" stroke-linecap="round" stroke-linejoin="round"/>
</svg>
