<svg width="24" height="25" viewBox="0 0 24 25" fill="none" xmlns="http://www.w3.org/2000/svg">
<path fill-rule="evenodd" clip-rule="evenodd" d="M12.171 3.20117C12.7395 3.20122 14.3305 4.07028 14.506 4.44078C14.7432 4.94129 15.0176 6.8947 16.5832 6.8947C17.6256 6.8947 19.868 4.99952 20.5476 6.43105L20.7676 6.8947C21.0323 7.45467 21.1041 8.11994 20.9673 8.74445C20.8304 9.36897 20.496 9.90171 20.0376 10.2257L19.8876 10.3355C19.5824 10.5505 19.3291 10.8601 19.1535 11.2329C18.9779 11.6058 18.8862 12.0286 18.8876 12.4586V13.0687C18.8862 13.4987 18.9779 13.9215 19.1535 14.2943C19.3291 14.6672 19.5824 14.9767 19.8876 15.1917L20.0376 15.2894C20.496 15.6134 20.8304 16.1461 20.9673 16.7706C21.1041 17.3951 21.0323 18.0604 20.7676 18.6204L20.5476 19.0962C20.282 19.6556 19.8454 19.1403 19.3336 19.3073C18.0369 19.7303 16.9317 18.2914 15.6676 19.0962C14.9085 19.5796 14.8529 20.3543 14.506 21.0865C14.3305 21.457 14.2376 22.3052 14.2376 22.3052H9.79758C9.79758 22.3052 9.70464 21.457 9.52912 21.0865C8.00586 17.4694 6.76166 19.4718 5.48758 19.0962L5.26758 18.6326C5.00284 18.0726 4.93102 17.4073 5.06789 16.7828C5.20475 16.1583 5.53912 15.6256 5.99758 15.3016L6.14758 15.1917C6.45279 14.9767 6.70602 14.6672 6.88162 14.2943C7.05723 13.9215 7.14898 13.4987 7.14758 13.0687V12.4464C7.14547 12.0205 7.05206 11.6028 6.87663 11.2346C6.7012 10.8664 6.44986 10.5607 6.14758 10.3477L5.99758 10.2257C5.53912 9.90171 5.20475 9.36897 5.06789 8.74445C4.93102 8.11994 5.00284 7.45467 5.26758 6.8947L5.48758 6.43105C5.75313 5.87165 7.24694 7.06171 7.75878 6.89472C9.23714 6.41237 10.6056 3.20103 12.171 3.20117ZM15.0176 12.7636C15.0176 14.7853 13.6744 16.4241 12.0176 16.4241C10.3607 16.4241 9.01758 14.7853 9.01758 12.7636C9.01758 10.742 10.3607 9.10318 12.0176 9.10318C13.6744 9.10318 15.0176 10.742 15.0176 12.7636Z" fill="#FFA902"/>
<path fill-rule="evenodd" clip-rule="evenodd" d="M13.0176 17.2197C15.5029 17.2197 17.5176 15.205 17.5176 12.7197C17.5176 10.2344 15.5029 8.21973 13.0176 8.21973C10.5323 8.21973 8.51758 10.2344 8.51758 12.7197C8.51758 15.205 10.5323 17.2197 13.0176 17.2197ZM8.51758 12.7197C8.51758 11.0079 9.90532 9.62012 11.6172 9.62012C13.3291 9.62012 14.7168 11.0079 14.7168 12.7197C14.7168 14.4316 13.3291 15.8193 11.6172 15.8193C9.90532 15.8193 8.51758 14.4316 8.51758 12.7197Z" fill="#F04400"/>
<path d="M12.22 2.71973H11.78C11.2496 2.71973 10.7409 2.93044 10.3658 3.30551C9.99072 3.68059 9.78 4.18929 9.78 4.71973V4.89973C9.77964 5.25045 9.68706 5.59492 9.51154 5.89856C9.33602 6.20221 9.08374 6.45436 8.78 6.62973L8.35 6.87973C8.04596 7.05526 7.70108 7.14768 7.35 7.14768C6.99893 7.14768 6.65404 7.05526 6.35 6.87973L6.2 6.79973C5.74107 6.53499 5.19584 6.46317 4.684 6.60003C4.17217 6.7369 3.73555 7.07126 3.47 7.52973L3.25 7.90973C2.98526 8.36866 2.91345 8.91389 3.05031 9.42572C3.18717 9.93756 3.52154 10.3742 3.98 10.6397L4.13 10.7397C4.43228 10.9142 4.68362 11.1648 4.85905 11.4666C5.03448 11.7683 5.1279 12.1107 5.13 12.4597V12.9697C5.1314 13.3221 5.03965 13.6687 4.86405 13.9742C4.68844 14.2798 4.43521 14.5335 4.13 14.7097L3.98 14.7997C3.52154 15.0653 3.18717 15.5019 3.05031 16.0137C2.91345 16.5256 2.98526 17.0708 3.25 17.5297L3.47 17.9097C3.73555 18.3682 4.17217 18.7026 4.684 18.8394C5.19584 18.9763 5.74107 18.9045 6.2 18.6397L6.35 18.5597C6.65404 18.3842 6.99893 18.2918 7.35 18.2918C7.70108 18.2918 8.04596 18.3842 8.35 18.5597L8.78 18.8097C9.08374 18.9851 9.33602 19.2372 9.51154 19.5409C9.68706 19.8445 9.77964 20.189 9.78 20.5397V20.7197C9.78 21.2502 9.99072 21.7589 10.3658 22.1339C10.7409 22.509 11.2496 22.7197 11.78 22.7197H12.22C12.7504 22.7197 13.2591 22.509 13.6342 22.1339C14.0093 21.7589 14.22 21.2502 14.22 20.7197V20.5397C14.2204 20.189 14.3129 19.8445 14.4885 19.5409C14.664 19.2372 14.9163 18.9851 15.22 18.8097L15.65 18.5597C15.954 18.3842 16.2989 18.2918 16.65 18.2918C17.0011 18.2918 17.346 18.3842 17.65 18.5597L17.8 18.6397C18.2589 18.9045 18.8042 18.9763 19.316 18.8394C19.8278 18.7026 20.2645 18.3682 20.53 17.9097L20.75 17.5197C21.0147 17.0608 21.0866 16.5156 20.9497 16.0037C20.8128 15.4919 20.4785 15.0553 20.02 14.7897L19.87 14.7097C19.5648 14.5335 19.3116 14.2798 19.136 13.9742C18.9604 13.6687 18.8686 13.3221 18.87 12.9697V12.4697C18.8686 12.1173 18.9604 11.7708 19.136 11.4652C19.3116 11.1597 19.5648 10.9059 19.87 10.7297L20.02 10.6397C20.4785 10.3742 20.8128 9.93756 20.9497 9.42572C21.0866 8.91389 21.0147 8.36866 20.75 7.90973L20.53 7.52973C20.2645 7.07126 19.8278 6.7369 19.316 6.60003C18.8042 6.46317 18.2589 6.53499 17.8 6.79973L17.65 6.87973C17.346 7.05526 17.0011 7.14768 16.65 7.14768C16.2989 7.14768 15.954 7.05526 15.65 6.87973L15.22 6.62973C14.9163 6.45436 14.664 6.20221 14.4885 5.89856C14.3129 5.59492 14.2204 5.25045 14.22 4.89973V4.71973C14.22 4.18929 14.0093 3.68059 13.6342 3.30551C13.2591 2.93044 12.7504 2.71973 12.22 2.71973Z" stroke="black" stroke-width="2" stroke-linecap="round" stroke-linejoin="round"/>
<path d="M12 15.7197C13.6569 15.7197 15 14.3766 15 12.7197C15 11.0629 13.6569 9.71973 12 9.71973C10.3431 9.71973 9 11.0629 9 12.7197C9 14.3766 10.3431 15.7197 12 15.7197Z" stroke="black" stroke-width="2" stroke-linecap="round" stroke-linejoin="round"/>
</svg>
