<svg width="29" height="29" viewBox="0 0 29 29" fill="none" xmlns="http://www.w3.org/2000/svg">
<path d="M7.37207 19.4282C7.37207 18.0613 8.48021 16.9531 9.84717 16.9531C11.2141 16.9531 12.3223 18.0613 12.3223 19.4282V24.229C12.3223 25.596 11.2141 26.7041 9.84717 26.7041C8.48021 26.7041 7.37207 25.596 7.37207 24.229V19.4282Z" fill="#FFA902"/>
<path d="M7.94434 5.40527C7.94434 4.3007 8.83977 3.40527 9.94434 3.40527H22.7764C23.8809 3.40527 24.7764 4.3007 24.7764 5.40527V9.88574H7.94434V5.40527Z" fill="#F04400"/>
<path d="M3.98897 5.52802C2.1194 7.84454 1 10.7917 1 14.0004C1 21.4561 7.04415 27.5004 14.5 27.5004C21.9558 27.5004 28 21.4561 28 14.0004C28 10.7917 26.8806 7.84454 25.011 5.52802L24.6998 5.13281" stroke="black" stroke-width="2"/>
<path d="M9.82617 1V5.6M19.0262 1V5.6M24.7762 22.5V5.6C24.7762 4.32974 23.7464 3.3 22.4762 3.3H6.37617C5.10592 3.3 4.07617 4.32974 4.07617 5.6V22.366M4.07617 10.2H24.7762M9.82617 14.8H9.83767M9.82617 19.4H9.83767M19.0262 19.4H19.0377" stroke="black" stroke-width="2" stroke-linecap="round" stroke-linejoin="round"/>
<path d="M19.8203 14.0078L14.4224 19.4058L11.9688 16.9521" stroke="black" stroke-width="2" stroke-linecap="round" stroke-linejoin="round"/>
</svg>
