<svg width="29" height="29" viewBox="0 0 29 29" fill="none" xmlns="http://www.w3.org/2000/svg">
<path d="M3.98897 5.52802C2.1194 7.84454 1 10.7917 1 14.0004C1 21.4561 7.04415 27.5004 14.5 27.5004C21.9558 27.5004 28 21.4561 28 14.0004C28 10.7917 26.8806 7.84454 25.011 5.52802L24.6998 5.13281" stroke="#AAAFBE" stroke-width="2"/>
<path d="M9.82617 1V5.6M19.0262 1V5.6M24.7762 22.5V5.6C24.7762 4.32974 23.7464 3.3 22.4762 3.3H6.37617C5.10592 3.3 4.07617 4.32974 4.07617 5.6V22.366M4.07617 10.2H24.7762M9.82617 14.8H9.83767M9.82617 19.4H9.83767M19.0262 19.4H19.0377" stroke="#AAAFBE" stroke-width="2" stroke-linecap="round" stroke-linejoin="round"/>
<path d="M19.8203 14.0078L14.4224 19.4058L11.9688 16.9521" stroke="#AAAFBE" stroke-width="2" stroke-linecap="round" stroke-linejoin="round"/>
</svg>
