<svg width="34" height="33" viewBox="0 0 34 33" fill="none" xmlns="http://www.w3.org/2000/svg">
<path d="M30.8496 16.6006C30.8496 24.112 24.7604 30.2012 17.249 30.2012C9.73763 30.2012 3.64844 24.112 3.64844 16.6006C3.64844 16.6006 9.73763 21.0469 17.249 21.0469C24.7604 21.0469 30.8496 16.6006 30.8496 16.6006Z" fill="#FFA902"/>
<path d="M23.321 11.4385C23.5266 11.398 23.7398 11.4315 23.923 11.5332L23.9256 11.5347L23.9291 11.5366L23.9381 11.5417L23.9648 11.5572C23.9863 11.5698 24.0152 11.5872 24.0506 11.6093C24.1215 11.6534 24.2189 11.7168 24.3366 11.8001C24.5718 11.9665 28.4246 10.2276 28.7759 10.5618C31.2045 12.8728 31.3662 17.2565 30.8778 20.7294C30.807 21.2323 27.605 20.436 27.5147 20.7294C27.4695 20.8765 27.428 20.9939 27.3964 21.0776C27.3807 21.1195 27.3674 21.1531 27.3573 21.1778L27.3447 21.2082L27.3404 21.2183L27.3388 21.222L27.3375 21.2249C27.1962 21.5478 26.8772 21.7564 26.5248 21.7564H25.1437C25.1437 22.4908 24.8519 23.195 24.3327 23.7143C23.8134 24.2336 23.1091 24.5253 22.3748 24.5253C22.2449 24.5253 22.1159 24.5162 21.9888 24.4983C21.9535 24.6813 21.8997 24.8607 21.8281 25.0337C21.6889 25.3697 21.4849 25.6749 21.2278 25.932C20.9707 26.1892 20.6655 26.3931 20.3295 26.5323C19.9936 26.6714 19.6335 26.743 19.2699 26.743C18.9063 26.743 18.5462 26.6714 18.2103 26.5323C18.0832 26.4796 17.9605 26.4177 17.8432 26.3472C17.7052 26.6866 17.5 26.9986 17.2359 27.2627C16.7166 27.782 16.0123 28.0737 15.278 28.0737C14.5436 28.0737 13.8393 27.782 13.3201 27.2627L7.55394 21.4966C7.54695 21.4896 7.54008 21.4825 7.53332 21.4752L6.89683 20.7947C6.26489 20.119 3.44904 19.9893 3.43113 19.6309C3.33931 17.7939 3.05797 15.0001 4.7479 13.7526C5.16809 13.4424 5.17422 10.406 5.46314 10.2689C6.68507 9.68895 9.82258 11.1112 11.1797 11.1112H16.033C16.7625 10.6643 17.5836 10.3749 18.4434 10.2689C19.7735 10.105 21.1208 10.3897 22.2711 11.0773L22.6912 11.3276C22.8801 11.4416 23.1046 11.4811 23.321 11.4385Z" fill="#F04400"/>
<path d="M7.91435 12.4235L13.575 13.0195C12.8405 14.0195 11.4174 16.1068 12.9955 17.6018C13.9554 18.5113 17.3951 16.5019 17.3951 16.5019C17.3951 16.5019 23.8759 22.4787 24.3307 23.5902C24.7854 24.7017 23.1313 24.0325 20.6172 25.5811C17.2827 27.0715 14.9333 28.1578 14.9333 28.1578L5.96856 19.7412C5.44306 17.5288 5.60455 15.009 6.05986 13.4676C6.29212 12.6813 7.099 12.3376 7.91435 12.4235Z" fill="white"/>
<path d="M16.9661 13.2953C15.458 14.5813 12.6419 17.7046 12.0176 17.2207C12.546 18.0131 14.6416 18.6935 16.1518 17.2215C17.6619 15.7494 18.8313 15.1078 20.5298 16.3911C21.8887 17.4178 24.1408 19.8637 25.097 20.9583H30.323C30.9269 18.3312 30.8372 13.6836 29.9817 12.2868C28.8242 12.5385 24.0777 14.2884 22.3129 13.2951C20.109 12.0548 18.6978 11.8186 16.9661 13.2953Z" fill="white"/>
<path d="M23.8296 4.70898C27.9585 7.01798 30.75 11.4329 30.75 16.4998C30.75 23.9556 24.7058 29.9998 17.25 29.9998C9.79415 29.9998 3.75 23.9556 3.75 16.4998C3.75 11.4329 6.54145 7.01798 10.6704 4.70898" stroke="black" stroke-width="2" stroke-linecap="round"/>
<path d="M16.1091 24.0447L18.1012 26.0369C18.2974 26.2331 18.5304 26.3887 18.7867 26.4949C19.0431 26.6011 19.3179 26.6557 19.5953 26.6557C19.8728 26.6557 20.1476 26.6011 20.4039 26.4949C20.6603 26.3887 20.8932 26.2331 21.0894 26.0369C21.2857 25.8407 21.4413 25.6077 21.5475 25.3514C21.6537 25.095 21.7083 24.8202 21.7083 24.5428C21.7083 24.2653 21.6537 23.9905 21.5475 23.7342C21.4413 23.4778 21.2857 23.2449 21.0894 23.0487M19.0973 21.0565L21.5875 23.5467C21.9837 23.943 22.5212 24.1656 23.0816 24.1656C23.642 24.1656 24.1794 23.943 24.5757 23.5467C24.972 23.1504 25.1946 22.613 25.1946 22.0526C25.1946 21.7019 25.1074 21.3602 24.9451 21.0565M29.67 21.0567L25.0737 21.0565H24.9451M16.6071 24.5428C17.0034 24.939 17.226 25.4765 17.226 26.0369C17.226 26.5973 17.0034 27.1347 16.6071 27.531C16.2109 27.9272 15.6734 28.1499 15.113 28.1499C14.5526 28.1499 14.0152 27.9272 13.6189 27.531L7.14448 21.0565L4.47677 19.8582M5.5908 9.9873L16.1091 11.0958H16.2539M16.2539 11.0958C15.9573 11.2973 15.6785 11.5271 15.4218 11.7831L12.6229 14.5821C12.2266 14.9783 12.004 15.5158 12.004 16.0762C12.004 16.6366 12.2266 17.174 12.6229 17.5703C13.0191 17.9665 13.5566 18.1892 14.117 18.1892C14.6774 18.1892 15.2148 17.9665 15.6111 17.5703L16.4876 16.6937C17.0479 16.1341 17.8074 15.8198 18.5993 15.8198C19.3912 15.8198 20.1507 16.1341 20.7109 16.6937L24.5757 20.5585C24.724 20.7068 24.848 20.8749 24.9451 21.0565M16.2539 11.0958C17.0071 10.5842 17.8753 10.2552 18.7892 10.1426C20.0629 9.9856 21.3526 10.258 22.4541 10.9165L22.9222 11.1954C23.3463 11.4514 23.8506 11.5402 24.3366 11.4444L28.9652 10.1426" stroke="black" stroke-width="2" stroke-linecap="round" stroke-linejoin="round"/>
<path d="M17.25 3L18.1937 4.37693L19.7948 4.84892L18.7769 6.1719L18.8228 7.84053L17.25 7.28125L15.6772 7.84053L15.7231 6.1719L14.7052 4.84892L16.3063 4.37693L17.25 3Z" fill="#FFA902"/>
<path d="M17.25 3L18.1937 4.37693L19.7948 4.84892L18.7769 6.1719L18.8228 7.84053L17.25 7.28125L15.6772 7.84053L15.7231 6.1719L14.7052 4.84892L16.3063 4.37693L17.25 3Z" stroke="black" stroke-width="2" stroke-linejoin="round"/>
</svg>
