<svg width="21" height="20" viewBox="0 0 21 20" fill="none" xmlns="http://www.w3.org/2000/svg">
<path d="M12.5834 3.33301H8.41675L6.33341 5.83301H3.83341C3.39139 5.83301 2.96746 6.0086 2.6549 6.32116C2.34234 6.63372 2.16675 7.05765 2.16675 7.49967V14.9997C2.16675 15.4417 2.34234 15.8656 2.6549 16.1782C2.96746 16.4907 3.39139 16.6663 3.83341 16.6663H17.1667C17.6088 16.6663 18.0327 16.4907 18.3453 16.1782C18.6578 15.8656 18.8334 15.4417 18.8334 14.9997V7.49967C18.8334 7.05765 18.6578 6.63372 18.3453 6.32116C18.0327 6.0086 17.6088 5.83301 17.1667 5.83301H14.6667L12.5834 3.33301Z" stroke="white" stroke-width="1.66667" stroke-linecap="round" stroke-linejoin="round"/>
<path d="M10.5001 13.333C11.8808 13.333 13.0001 12.2137 13.0001 10.833C13.0001 9.4523 11.8808 8.33301 10.5001 8.33301C9.11937 8.33301 8.00008 9.4523 8.00008 10.833C8.00008 12.2137 9.11937 13.333 10.5001 13.333Z" stroke="white" stroke-width="1.66667" stroke-linecap="round" stroke-linejoin="round"/>
</svg>
