<svg width="34" height="33" viewBox="0 0 34 33" fill="none" xmlns="http://www.w3.org/2000/svg">
<path d="M23.8296 4.70898C27.9585 7.01798 30.75 11.4329 30.75 16.4998C30.75 23.9556 24.7058 29.9998 17.25 29.9998C9.79415 29.9998 3.75 23.9556 3.75 16.4998C3.75 11.4329 6.54145 7.01798 10.6704 4.70898" stroke="#AAAFBE" stroke-width="2" stroke-linecap="round"/>
<path d="M16.1081 24.0447L18.1003 26.0369C18.2965 26.2331 18.5294 26.3887 18.7858 26.4949C19.0421 26.6011 19.3169 26.6557 19.5944 26.6557C19.8718 26.6557 20.1466 26.6011 20.403 26.4949C20.6593 26.3887 20.8923 26.2331 21.0885 26.0369C21.2847 25.8407 21.4403 25.6077 21.5465 25.3514C21.6527 25.095 21.7073 24.8202 21.7073 24.5428C21.7073 24.2653 21.6527 23.9905 21.5465 23.7342C21.4403 23.4778 21.2847 23.2449 21.0885 23.0487M19.0963 21.0565L21.5865 23.5467C21.9828 23.943 22.5202 24.1656 23.0806 24.1656C23.641 24.1656 24.1785 23.943 24.5747 23.5467C24.971 23.1504 25.1936 22.613 25.1936 22.0526C25.1936 21.7019 25.1064 21.3602 24.9441 21.0565M29.669 21.0567L25.0727 21.0565H24.9441M16.6062 24.5428C17.0024 24.939 17.225 25.4765 17.225 26.0369C17.225 26.5973 17.0024 27.1347 16.6062 27.531C16.2099 27.9272 15.6725 28.1499 15.1121 28.1499C14.5517 28.1499 14.0142 27.9272 13.618 27.531L7.1435 21.0565L4.4758 19.8582M5.58983 9.9873L16.1081 11.0958H16.2529M16.2529 11.0958C15.9563 11.2973 15.6775 11.5271 15.4208 11.7831L12.6219 14.5821C12.2256 14.9783 12.003 15.5158 12.003 16.0762C12.003 16.6366 12.2256 17.174 12.6219 17.5703C13.0181 17.9665 13.5556 18.1892 14.116 18.1892C14.6764 18.1892 15.2138 17.9665 15.6101 17.5703L16.4866 16.6937C17.0469 16.1341 17.8064 15.8198 18.5983 15.8198C19.3902 15.8198 20.1497 16.1341 20.71 16.6937L24.5747 20.5585C24.723 20.7068 24.847 20.8749 24.9441 21.0565M16.2529 11.0958C17.0061 10.5842 17.8743 10.2552 18.7882 10.1426C20.0619 9.9856 21.3516 10.258 22.4531 10.9165L22.9212 11.1954C23.3454 11.4514 23.8496 11.5402 24.3357 11.4444L28.9643 10.1426" stroke="#AAAFBE" stroke-width="2" stroke-linecap="round" stroke-linejoin="round"/>
<path d="M17.25 3L18.1937 4.37693L19.7948 4.84892L18.7769 6.1719L18.8228 7.84053L17.25 7.28125L15.6772 7.84053L15.7231 6.1719L14.7052 4.84892L16.3063 4.37693L17.25 3Z" stroke="#AAAFBE" stroke-width="2" stroke-linejoin="round"/>
</svg>
