<svg width="34" height="34" viewBox="0 0 34 34" fill="none" xmlns="http://www.w3.org/2000/svg">
<path d="M3.75 17.0002C3.75 24.456 9.79415 30.5002 17.25 30.5002H19.6962M27.3271 25.9838C29.4561 23.5973 30.75 20.4498 30.75 17.0002C30.75 9.93703 25.3257 4.14078 18.4156 3.5498" stroke="#AAAFBE" stroke-width="2" stroke-linecap="round"/>
<path d="M14.3272 3.5H13.9267C13.444 3.5 12.981 3.69177 12.6396 4.03313C12.2983 4.37449 12.1065 4.83747 12.1065 5.32023V5.48405C12.1062 5.80325 12.0219 6.11675 11.8622 6.39311C11.7024 6.66946 11.4728 6.89895 11.1964 7.05855L10.805 7.28608C10.5283 7.44584 10.2144 7.52994 9.89492 7.52994C9.5754 7.52994 9.26152 7.44584 8.98481 7.28608L8.84829 7.21327C8.4306 6.97233 7.93439 6.90696 7.46856 7.03153C7.00273 7.15609 6.60536 7.4604 6.36368 7.87765L6.16345 8.22349C5.92251 8.64118 5.85715 9.1374 5.98171 9.60323C6.10627 10.0691 6.41058 10.4664 6.82783 10.7081L6.96435 10.7991C7.23946 10.9579 7.46821 11.186 7.62787 11.4606C7.78753 11.7352 7.87255 12.0469 7.87447 12.3645V12.8287C7.87574 13.1494 7.79224 13.4648 7.63242 13.7429C7.47259 14.021 7.24213 14.2519 6.96435 14.4123L6.82783 14.4942C6.41058 14.7359 6.10627 15.1332 5.98171 15.5991C5.85715 16.0649 5.92251 16.5611 6.16345 16.9788L6.36368 17.3246C6.60536 17.7419 7.00273 18.0462 7.46856 18.1708C7.93439 18.2953 8.4306 18.23 8.84829 17.989L8.98481 17.9162C9.26152 17.7565 9.5754 17.6723 9.89492 17.6723C10.2144 17.6723 10.5283 17.7565 10.805 17.9162L11.1964 18.1437C11.4728 18.3033 11.7024 18.5328 11.8622 18.8092C12.0219 19.0855 12.1062 19.399 12.1065 19.7182V19.8821C12.1065 20.3648 12.2983 20.8278 12.6396 21.1692C12.981 21.5105 13.444 21.7023 13.9267 21.7023H14.3272C14.8099 21.7023 15.2729 21.5105 15.6143 21.1692C15.9556 20.8278 16.1474 20.3648 16.1474 19.8821V19.7182C16.1477 19.399 16.232 19.0855 16.3917 18.8092C16.5515 18.5328 16.7811 18.3033 17.0575 18.1437L17.4489 17.9162C17.7256 17.7565 18.0395 17.6723 18.359 17.6723C18.6785 17.6723 18.9924 17.7565 19.2691 17.9162L19.4056 17.989C19.8233 18.23 20.3195 18.2953 20.7853 18.1708C21.2512 18.0462 21.6485 17.7419 21.8902 17.3246L22.0905 16.9697C22.3314 16.552 22.3968 16.0558 22.2722 15.59C22.1476 15.1241 21.8433 14.7268 21.4261 14.4851L21.2896 14.4123C21.0118 14.2519 20.7813 14.021 20.6215 13.7429C20.4617 13.4648 20.3782 13.1494 20.3794 12.8287V12.3736C20.3782 12.0529 20.4617 11.7375 20.6215 11.4594C20.7813 11.1813 21.0118 10.9504 21.2896 10.79L21.4261 10.7081C21.8433 10.4664 22.1476 10.0691 22.2722 9.60323C22.3968 9.1374 22.3314 8.64118 22.0905 8.22349L21.8902 7.87765C21.6485 7.4604 21.2512 7.15609 20.7853 7.03153C20.3195 6.90696 19.8233 6.97233 19.4056 7.21327L19.2691 7.28608C18.9924 7.44584 18.6785 7.52994 18.359 7.52994C18.0395 7.52994 17.7256 7.44584 17.4489 7.28608L17.0575 7.05855C16.7811 6.89895 16.5515 6.66946 16.3917 6.39311C16.232 6.11675 16.1477 5.80325 16.1474 5.48405V5.32023C16.1474 4.83747 15.9556 4.37449 15.6143 4.03313C15.2729 3.69177 14.8099 3.5 14.3272 3.5Z" stroke="#AAAFBE" stroke-width="2" stroke-linecap="round" stroke-linejoin="round"/>
<path d="M14.127 15.3315C15.6349 15.3315 16.8573 14.1091 16.8573 12.6011C16.8573 11.0932 15.6349 9.8708 14.127 9.8708C12.619 9.8708 11.3966 11.0932 11.3966 12.6011C11.3966 14.1091 12.619 15.3315 14.127 15.3315Z" stroke="#AAAFBE" stroke-width="2" stroke-linecap="round" stroke-linejoin="round"/>
<path d="M24.6481 20.8298L24.4386 20.7088C24.186 20.563 23.8858 20.5235 23.6041 20.599C23.3224 20.6745 23.0823 20.8588 22.9364 21.1113L22.887 21.197C22.7904 21.3639 22.6516 21.5025 22.4845 21.5988C22.3175 21.6952 22.1281 21.7459 21.9352 21.7459L21.6618 21.7467C21.4687 21.7467 21.2791 21.6959 21.1119 21.5994C20.9448 21.5029 20.806 21.3641 20.7095 21.1969L20.66 21.1176C20.5143 20.8653 20.2744 20.6813 19.9931 20.6057C19.7118 20.5302 19.4119 20.5694 19.1595 20.7147L18.9502 20.8351C18.698 20.9809 18.5139 21.2207 18.4384 21.5021C18.3629 21.7834 18.4021 22.0832 18.5473 22.3357L18.5913 22.4245C18.6872 22.5907 18.738 22.7791 18.7386 22.971C18.7392 23.1629 18.6895 23.3517 18.5946 23.5184L18.4544 23.7613C18.3582 23.9294 18.2192 24.0692 18.0516 24.1664C17.884 24.2637 17.6937 24.3149 17.4999 24.3149L17.4037 24.3165C17.1124 24.3169 16.8332 24.4329 16.6273 24.6389C16.4215 24.845 16.3058 25.1244 16.3057 25.4157L16.306 25.6571C16.3064 25.9484 16.4223 26.2276 16.6284 26.4335C16.8345 26.6394 17.1139 26.7551 17.4052 26.7552L17.4986 26.7583C17.6916 26.7583 17.8812 26.8091 18.0484 26.9056C18.2155 27.0021 18.3544 27.141 18.4509 27.3081L18.5869 27.5454C18.6833 27.7124 18.7341 27.9018 18.7342 28.0946C18.7343 28.2874 18.6837 28.4769 18.5875 28.644L18.538 28.7297C18.3922 28.9823 18.3526 29.2824 18.4281 29.5641C18.5036 29.8458 18.6879 30.086 18.9405 30.2318L19.15 30.3528C19.4025 30.4986 19.7027 30.5381 19.9844 30.4626C20.2661 30.3872 20.5063 30.2029 20.6521 29.9503L20.7016 29.8646C20.7981 29.6977 20.9369 29.5591 21.104 29.4628C21.271 29.3665 21.4605 29.3158 21.6533 29.3158L21.9268 29.3149C22.1198 29.3149 22.3094 29.3657 22.4766 29.4622C22.6437 29.5588 22.7825 29.6976 22.8791 29.8647L22.9285 29.9441C23.0742 30.1963 23.3141 30.3804 23.5954 30.4559C23.8768 30.5314 24.1766 30.4923 24.4291 30.347L24.641 30.2217C24.8932 30.076 25.0773 29.8361 25.1529 29.5548C25.2284 29.2735 25.1892 28.9737 25.0439 28.7212L24.9945 28.6419C24.8976 28.474 24.8468 28.2836 24.8472 28.0899C24.8475 27.8961 24.8991 27.7059 24.9967 27.5384L25.1341 27.3004C25.2303 27.1322 25.3693 26.9924 25.5369 26.8952C25.7045 26.798 25.8948 26.7468 26.0886 26.7468L26.1848 26.7452C26.4761 26.7448 26.7553 26.6288 26.9612 26.4227C27.1671 26.2166 27.2827 25.9373 27.2829 25.646L27.2826 25.4045C27.2822 25.1132 27.1662 24.834 26.9601 24.6281C26.754 24.4223 26.4747 24.3066 26.1834 24.3065L26.0899 24.3033C25.8969 24.3033 25.7073 24.2525 25.5401 24.156C25.373 24.0595 25.2342 23.9207 25.1376 23.7535L25.0016 23.5163C24.9052 23.3493 24.8544 23.1598 24.8543 22.967C24.8542 22.7742 24.9048 22.5847 25.0011 22.4176L25.0505 22.3319C25.1964 22.0793 25.2359 21.7792 25.1604 21.4975C25.0849 21.2158 24.9006 20.9756 24.6481 20.8298Z" stroke="#AAAFBE" stroke-width="2" stroke-linecap="round" stroke-linejoin="round"/>
</svg>
