<svg width="18" height="19" viewBox="0 0 18 19" fill="none" xmlns="http://www.w3.org/2000/svg">
<path d="M8.99948 4.99988V9.49988L11.9995 10.9999M11.9995 16.3699C10.6514 16.9588 9.15992 17.1382 7.71063 16.8859C6.26134 16.6336 4.91826 15.9606 3.84854 14.9508C2.77883 13.9409 2.02972 12.6387 1.69445 11.2064C1.35918 9.77399 1.45255 8.27464 1.96295 6.89493C2.47335 5.51522 3.37823 4.31607 4.56498 3.44674C5.75173 2.5774 7.16793 2.07627 8.63733 2.00571C10.1067 1.93514 11.5644 2.29827 12.829 3.04989C14.0936 3.80151 15.1092 4.90843 15.7495 6.23288M14.9995 9.12488V13.6249M14.9995 16.6249H15.007" stroke="#1DB281" stroke-width="1.5" stroke-linecap="round" stroke-linejoin="round"/>
</svg>
