<svg width="53" height="42" viewBox="0 0 53 42" fill="none" xmlns="http://www.w3.org/2000/svg">
<path d="M32.75 1H20.25L14 8.5H6.5C5.17392 8.5 3.90215 9.02678 2.96447 9.96447C2.02678 10.9021 1.5 12.1739 1.5 13.5V36C1.5 37.3261 2.02678 38.5979 2.96447 39.5355C3.90215 40.4732 5.17392 41 6.5 41H46.5C47.8261 41 49.0979 40.4732 50.0355 39.5355C50.9732 38.5979 51.5 37.3261 51.5 36V13.5C51.5 12.1739 50.9732 10.9021 50.0355 9.96447C49.0979 9.02678 47.8261 8.5 46.5 8.5H39L32.75 1Z" stroke="#717A93" stroke-width="2" stroke-linecap="round" stroke-linejoin="round"/>
<path d="M26.5 31C30.6421 31 34 27.6421 34 23.5C34 19.3579 30.6421 16 26.5 16C22.3579 16 19 19.3579 19 23.5C19 27.6421 22.3579 31 26.5 31Z" stroke="#717A93" stroke-width="2" stroke-linecap="round" stroke-linejoin="round"/>
</svg>
