<svg width="35" height="35" viewBox="0 0 35 35" fill="none" xmlns="http://www.w3.org/2000/svg">
<path d="M9.72222 2.91699V8.75033M25.2778 2.91699V8.75033M30.625 18.9587V8.75033C30.625 7.97678 30.3177 7.23491 29.7707 6.68793C29.2237 6.14095 28.4819 5.83366 27.7083 5.83366H7.29167C6.51812 5.83366 5.77625 6.14095 5.22927 6.68793C4.68229 7.23491 4.375 7.97678 4.375 8.75033V29.167C4.375 29.9405 4.68229 30.6824 5.22927 31.2294C5.77625 31.7764 6.51812 32.0837 7.29167 32.0837H18.9583M4.375 14.5837H30.625M23.3333 27.7087H32.0833M27.7083 23.3337V32.0837M17.5 2.91699V8.75033" stroke="white" stroke-width="2" stroke-linecap="round" stroke-linejoin="round"/>
</svg>
