<svg width="64" height="67" viewBox="0 0 64 67" fill="none" xmlns="http://www.w3.org/2000/svg">
<path d="M5.27011 14.8355C5.72613 14.6898 6.92887 14.7064 7.47324 14.7328L8.39331 17.1824C6.31276 17.8622 2.1638 19.0203 2.21234 18.2147C2.273 17.2076 3.24408 16.4614 3.56561 16.158C3.88715 15.8547 4.70009 15.0175 5.27011 14.8355Z" fill="#FFBD3D"/>
<path d="M2.20814 18.1277C2.66682 16.5943 4.68963 16.9736 7.83509 16.9579L8.15426 18.7432H6.84581C7.36733 19.843 9.28304 22.802 10.2541 23.8501L14.3325 31.2007C12.3409 31.2007 9.58002 29.6356 7.83544 27.9081C5.8377 25.93 1.66102 19.9567 2.20814 18.1277Z" fill="#FFA902"/>
<path d="M5.70334 18.7545H6.84766C6.84766 18.7545 8.6863 22.0656 10.174 23.7455C11.6616 25.4253 12.786 28.6994 12.786 28.6994C11.1788 28.1554 9.20064 26.474 7.3956 24.4217C6.35358 23.2369 5.41896 21.4385 4.8146 20.0762C4.53316 19.4418 5.00931 18.7545 5.70334 18.7545Z" fill="#FF9602"/>
<path d="M25.7938 38.2488C15.5639 37.9649 10.9224 26.4443 9.84375 21.0368C10.8777 21.9236 15.8474 23.7395 26.1023 21.3099C36.5687 18.8302 40.2205 14.654 40.8524 12.7408C40.8524 12.7408 42.2533 17.6616 41.7524 23.1962C41.4826 26.178 38.6386 38.6053 25.7938 38.2488Z" fill="#FFA902"/>
<path d="M40.8523 12.7408C40.8523 12.7408 42.2532 17.6616 41.7523 23.1962C41.5816 25.0829 40.3802 30.7514 36.2668 34.5701C36.5553 32.9528 38.2051 28.7796 38.0263 24.4881C37.8475 20.1967 36.0826 18.1223 35.7812 17.6885C39.0497 15.7938 40.4787 13.8719 40.8523 12.7408Z" fill="#FF9602"/>
<path d="M20.5154 29.0605L16.9549 25.4045L16.5842 28.904L12.7227 27.9492L16.8411 32.1531L18.2248 34.9919L20.9167 34.2194L26.3972 35.1325L23.2181 32.335L25.9839 28.6155L20.5154 29.0605Z" fill="white"/>
<path d="M20.5154 29.0605L16.9549 25.4045L16.5842 28.904L12.7227 27.9492L16.8411 32.1531L18.2248 34.9919L20.9167 34.2194L26.3972 35.1325L23.2181 32.335L25.9839 28.6155L20.5154 29.0605Z" stroke="black" stroke-linejoin="round"/>
<ellipse cx="23.602" cy="9.80447" rx="17.1446" ry="6.82551" transform="rotate(-14.3463 23.602 9.80447)" fill="#FFBD3D"/>
<path d="M40.2153 5.56946C41.1301 9.22005 34.4557 14.0738 25.2932 16.4172C16.3698 18.6994 8.37342 17.7599 7.08443 14.3455C7.01841 14.4406 6.99002 14.5269 7.00311 14.6034C7.22042 15.8722 7.66625 17.5974 8.15214 18.8859C9.74837 22.2288 17.2799 23.5967 26.4534 21.2505C35.6268 18.9043 41.4351 14.8061 41.3721 10.3897C41.3453 8.50355 40.5847 6.3469 40.2153 5.56946Z" fill="#FFA902"/>
<path d="M41.3719 10.3897C41.3451 8.50355 40.5845 6.3469 40.2151 5.56946C40.5886 7.05989 39.6971 8.75087 37.8877 10.3897C38.8993 11.0754 39.4001 13.2117 39.1043 15.142C40.5957 13.6527 41.3955 12.0435 41.3719 10.3897Z" fill="#FF9602"/>
<path d="M11.9643 17.4654C12.4278 17.5574 12.9175 17.6319 13.4307 17.6887M18.9956 17.6763C20.9768 17.4871 23.0985 17.1137 25.2748 16.5455C34.3538 14.1749 40.9454 9.3103 39.9976 5.68007C39.0497 2.04984 30.9213 1.02868 21.8423 3.39924C12.7633 5.76981 6.17172 10.6344 7.11959 14.2646C7.35144 15.1526 8.01293 15.8845 9.01288 16.4488" stroke="black" stroke-linecap="round"/>
<path d="M8.62716 18.8317C8.55739 18.5646 8.28424 18.4045 8.01706 18.4743C7.74987 18.544 7.58983 18.8172 7.6596 19.0844L8.62716 18.8317ZM40.6758 10.3414C40.871 12.5023 39.5944 14.4956 37.0196 16.2849C34.4504 18.0704 30.6866 19.5764 26.1723 20.7551L26.4249 21.7227C30.9897 20.5308 34.8823 18.988 37.5903 17.1061C40.2928 15.228 41.9142 12.9354 41.6718 10.2514L40.6758 10.3414ZM26.1723 20.7551C21.6786 21.9284 17.4422 22.2557 14.2342 21.8527C12.6287 21.651 11.3071 21.2696 10.3438 20.741C9.38178 20.213 8.81818 19.5633 8.62716 18.8317L7.6596 19.0844C7.94251 20.1679 8.7504 21.0072 9.86273 21.6176C10.9738 22.2274 12.4295 22.6338 14.1095 22.8449C17.4724 23.2673 21.8397 22.9199 26.4249 21.7227L26.1723 20.7551ZM39.8002 5.17982C39.6608 5.66 39.6597 5.65968 39.6586 5.65936C39.6582 5.65926 39.6572 5.65894 39.6565 5.65872C39.655 5.6583 39.6536 5.65787 39.6522 5.65744C39.6495 5.65657 39.6467 5.6557 39.6441 5.65483C39.6388 5.65308 39.6337 5.6513 39.629 5.64953C39.6194 5.64597 39.6109 5.64242 39.6034 5.63903C39.5885 5.63223 39.5781 5.62621 39.5721 5.62234C39.5599 5.61453 39.5664 5.61629 39.588 5.63943C39.6325 5.68708 39.7348 5.81856 39.8633 6.11825C40.1221 6.72208 40.459 7.94158 40.6758 10.3414L41.6718 10.2514C41.4509 7.80632 41.101 6.46753 40.7824 5.72429C40.6222 5.35045 40.4631 5.11121 40.3185 4.95651C40.2455 4.87848 40.1755 4.82116 40.1104 4.77957C40.0779 4.75881 40.047 4.74222 40.0181 4.72907C40.0037 4.72251 39.9899 4.71684 39.9768 4.71196C39.9702 4.70953 39.9638 4.70729 39.9576 4.70524C39.9545 4.70421 39.9514 4.70324 39.9484 4.7023C39.9469 4.70184 39.9454 4.70138 39.9439 4.70094C39.9432 4.70072 39.9421 4.70039 39.9417 4.70028C39.9406 4.69996 39.9395 4.69964 39.8002 5.17982Z" fill="black"/>
<path d="M44.6698 19.6405L38.2525 19.577L37.8387 18.1285C37.7396 17.7819 37.8348 17.4089 38.0877 17.1521L39.4518 15.7672C39.6405 15.5756 39.898 15.468 40.1669 15.4707C41.084 15.4799 42.9254 15.5113 45.3813 15.589C49.0336 15.7045 49.5677 18.5772 49.6398 18.9092C49.712 19.2413 49.712 21.5365 49.0624 24.5391C48.4128 27.5417 47.1653 29.408 45.6063 30.6186C43.782 32.0354 39.2735 32.2844 37.5332 32.1366L38.0903 30.4657C38.1386 30.3211 38.2192 30.1894 38.3262 30.0807L39.9404 28.44C40.1328 28.2444 40.3974 28.1382 40.6717 28.1355C42.361 28.1189 43.4876 27.8201 44.0175 27.597C44.1709 27.5324 44.2915 27.4142 44.3661 27.2654C45.0864 25.8278 45.4806 22.7473 45.6424 20.6879C45.6868 20.122 45.2374 19.6461 44.6698 19.6405Z" fill="#FFA902"/>
<path d="M47.6607 40.6621C46.8052 40.5943 44.5087 40.4997 43.4673 40.4609L20.4129 45.8891C19.6507 46.6181 17.8788 48.4333 16.8891 49.8628C15.652 51.6497 16.126 52.2245 16.3135 53.1242C16.5009 54.024 18.0255 60.0969 18.3254 61.1466C18.6253 62.1963 19.35 62.3212 22.174 62.4212C24.9981 62.5211 30.0968 62.5836 34.8078 62.7086C39.5187 62.8335 41.4431 61.6214 43.6923 59.897C45.9416 58.1726 48.3658 55.5984 50.1527 53.5366C51.9396 51.4748 51.3523 50.925 51.1024 49.9003C50.8525 48.8756 49.5878 43.712 49.3019 42.6107C49.016 41.5093 48.7301 40.7469 47.6607 40.6621Z" fill="#510B0B"/>
<path d="M42.8974 38.8269C42.4939 38.5914 38.5502 38.452 36.6288 38.4117L26.0713 39.6759C24.7295 40.8665 21.8117 43.5415 20.8747 44.7158C19.7035 46.1836 19.9243 46.8757 19.9927 47.1799C20.0611 47.4842 20.3274 48.4957 20.4187 48.8836C20.51 49.2714 20.5218 50.2283 22.1337 50.3132C23.7455 50.398 27.2241 50.415 31.0416 50.4998C34.8591 50.5846 35.2833 50.4489 37.5908 48.871C39.8983 47.2931 43.9397 42.7574 44.0098 42.5751C44.0365 42.5056 43.8412 41.4274 43.6985 40.7272C43.5628 40.0607 43.4018 39.1213 42.8974 38.8269Z" fill="#FFA902"/>
<path d="M42.8972 38.8269C42.4936 38.5914 38.55 38.452 36.6286 38.4117L37.7948 40.3853C37.3505 41.7779 37.5169 41.5961 36.5576 42.7912C38.8767 42.4085 39.6084 42.5998 39.8898 42.7912C40.4734 43.4196 40.634 45.2788 40.634 46.2169C42.3809 44.4918 43.9659 42.6887 44.0095 42.5751C44.0363 42.5056 43.841 41.4274 43.6983 40.7272C43.5625 40.0607 43.4016 39.1213 42.8972 38.8269Z" fill="#FF9602"/>
<path d="M37.6244 40.1489C35.7841 38.3291 35.0998 35.875 34.9877 34.8755C33.2373 36.575 28.133 38.0049 25.7997 38.5075C26.2228 40.5311 25.4724 42.8966 25.3767 43.5665C25.281 44.2365 26.183 45.7816 31.242 45.0706C36.3011 44.3596 38.3931 40.914 37.6244 40.1489Z" fill="#FFA902"/>
<path d="M47.5986 42.4434C47.5076 42.6801 42.2593 48.5703 39.2627 50.6195C36.2661 52.6686 35.7152 52.8449 30.7576 52.7347C25.8 52.6245 21.2827 52.6025 19.1895 52.4923" stroke="black" stroke-linecap="round"/>
<path d="M37.6241 40.1489C35.7838 38.3291 35.0995 35.875 34.9874 34.8755C34.5081 35.3408 33.7774 35.786 32.9209 36.1974C33.1265 38.2013 34.035 42.3975 36.0247 43.1518C37.5467 41.9555 38.0728 40.5955 37.6241 40.1489Z" fill="#FF9602"/>
<path d="M40.2422 28.1336C42.4907 28.1745 43.8477 27.7191 44.2452 27.4863C42.2226 30.8289 38.1641 30.2458 38.1641 30.2458L40.2422 28.1336Z" fill="#FF9602"/>
<path d="M9.99219 21.1198C11.0943 27.3607 16.981 37.6048 25.7011 38.0995M37.9605 17.7449C39.5661 17.7449 43.1305 17.7449 44.5434 17.7449C45.9758 17.7449 47.4083 18.537 47.5986 20.828M47.5137 22.682C47.5452 22.4728 47.5694 22.2715 47.5867 22.0779M41.5557 20.7006C41.4589 22.6526 41.164 24.6823 40.5834 26.6417M37.0502 33.1989C36.4667 33.8519 35.8154 34.4616 35.09 35.0175M35.09 35.0175C33.6156 36.1473 31.835 37.0545 29.6955 37.6499C28.3077 38.0361 26.9742 38.1717 25.7011 38.0995M35.09 35.0175C35.1868 35.9481 35.8427 38.2871 37.6918 40.1978C37.8544 41.302 37.0189 43.7674 32.3758 44.7947C29.4815 45.435 27.807 45.2515 26.8236 44.8397M25.7011 38.0995C25.8713 38.73 25.9648 39.3309 26.0033 39.8898" stroke="black" stroke-linecap="round" stroke-linejoin="round"/>
<path d="M13.041 28.9227C11.7761 28.45 8.73449 26.649 6.6875 23.2267" stroke="black" stroke-linecap="round"/>
<path d="M41.7774 41.0789C43.9584 38.9192 42.336 38.5986 40.601 38.5387C39.8816 38.5139 39.0695 38.488 38.3295 38.4652M30.1758 47.5703C34.5609 47.7429 35.1479 47.1905 36.3393 46.1546C36.6587 45.8769 37.024 45.5496 37.4341 45.1746" stroke="black" stroke-linecap="round"/>
<ellipse cx="23.9242" cy="10.393" rx="12.2108" ry="4.35675" transform="rotate(-14.3463 23.9242 10.393)" fill="#FF9602"/>
<path d="M12.9023 34.9392L12.6588 36.0203C12.3382 37.4439 12.6556 38.9366 13.5276 40.1067L14.1899 40.9952L13.1088 40.7517C11.6851 40.4312 10.1925 40.7485 9.02244 41.6206L8.13391 42.2828L8.37736 41.2017C8.69794 39.7781 8.38057 38.2854 7.50852 37.1154L6.8463 36.2268L7.92738 36.4703C9.35102 36.7909 10.8437 36.4735 12.0137 35.6014L12.9023 34.9392Z" fill="white"/>
<path d="M56.8998 51.576L57.5239 52.4917C58.3458 53.6976 59.6534 54.4842 61.1038 54.6452L62.2052 54.7675L61.2895 55.3916C60.0836 56.2135 59.297 57.5211 59.1359 58.9715L59.0137 60.0729L58.3896 59.1572C57.5677 57.9513 56.2601 57.1647 54.8097 57.0037L53.7083 56.8814L54.624 56.2573C55.8298 55.4354 56.6165 54.1278 56.7775 52.6774L56.8998 51.576Z" fill="white"/>
</svg>
