<svg width="24" height="25" viewBox="0 0 24 25" fill="none" xmlns="http://www.w3.org/2000/svg">
<path d="M11.5 15.2197H7C5.93913 15.2197 4.92172 15.6412 4.17157 16.3913C3.42143 17.1414 3 18.1589 3 19.2197V21.2197" fill="#FFA902"/>
<path d="M21.378 16.8457C21.7764 16.4474 22.0001 15.9071 22.0001 15.3437C22.0001 14.7804 21.7764 14.2401 21.378 13.8417C20.9796 13.4434 20.4394 13.2196 19.876 13.2196C19.3126 13.2196 18.7724 13.4434 18.374 13.8417L14.364 17.8537C14.1262 18.0913 13.9522 18.3851 13.858 18.7077L13.021 21.5777C12.9959 21.6638 12.9944 21.755 13.0166 21.8418C13.0389 21.9286 13.0841 22.0079 13.1474 22.0713C13.2108 22.1347 13.2901 22.1798 13.3769 22.2021C13.4637 22.2243 13.555 22.2228 13.641 22.1977L16.511 21.3607C16.8337 21.2665 17.1274 21.0925 17.365 20.8547L21.378 16.8457Z" fill="#FFA902"/>
<path d="M10 11.2197C12.2091 11.2197 14 9.42887 14 7.21973C14 5.01059 12.2091 3.21973 10 3.21973C7.79086 3.21973 6 5.01059 6 7.21973C6 9.42887 7.79086 11.2197 10 11.2197Z" fill="#FFA902"/>
<path d="M11.5 15.2198H7C5.93913 15.2198 4.92172 15.6412 4.17157 16.3913C3.42143 17.1415 3 18.1589 3 19.2198V21.2198" fill="#F04400"/>
<path d="M21.378 16.8458C21.7764 16.4474 22.0001 15.9071 22.0001 15.3438C22.0001 14.7804 21.378 13.8418 21.378 13.8418L13.1474 22.0713C13.1474 22.0713 13.2901 22.1799 13.3769 22.2021C13.4637 22.2244 13.555 22.2229 13.641 22.1978L16.511 21.3608C16.8337 21.2666 17.1274 21.0925 17.365 20.8548L21.378 16.8458Z" fill="#F04400"/>
<path d="M10 11.2198C12.2091 11.2198 14 9.42891 14 7.21977C14 5.60257 13.0403 4.20952 11.6593 3.5791C12.5896 6.65979 11.3804 9.53998 8.04002 10.7075C8.61924 11.0337 9.28789 11.2198 10 11.2198Z" fill="#F04400"/>
<path d="M11.5 15.2197H7C5.93913 15.2197 4.92172 15.6412 4.17157 16.3913C3.42143 17.1414 3 18.1589 3 19.2197V21.2197M21.378 16.8457C21.7764 16.4474 22.0001 15.9071 22.0001 15.3437C22.0001 14.7804 21.7764 14.2401 21.378 13.8417C20.9796 13.4434 20.4394 13.2196 19.876 13.2196C19.3126 13.2196 18.7724 13.4434 18.374 13.8417L14.364 17.8537C14.1262 18.0913 13.9522 18.3851 13.858 18.7077L13.021 21.5777C12.9959 21.6638 12.9944 21.755 13.0166 21.8418C13.0389 21.9286 13.0841 22.0079 13.1474 22.0713C13.2108 22.1347 13.2901 22.1798 13.3769 22.2021C13.4637 22.2243 13.555 22.2228 13.641 22.1977L16.511 21.3607C16.8337 21.2665 17.1274 21.0925 17.365 20.8547L21.378 16.8457ZM14 7.21973C14 9.42887 12.2091 11.2197 10 11.2197C7.79086 11.2197 6 9.42887 6 7.21973C6 5.01059 7.79086 3.21973 10 3.21973C12.2091 3.21973 14 5.01059 14 7.21973Z" stroke="black" stroke-width="2" stroke-linecap="round" stroke-linejoin="round"/>
</svg>
