<svg width="16" height="16" viewBox="0 0 16 16" fill="none" xmlns="http://www.w3.org/2000/svg">
<path d="M4.66667 6.66732V4.66732C4.66667 3.78326 5.01786 2.93542 5.64298 2.3103C6.2681 1.68517 7.11595 1.33398 8 1.33398C8.88406 1.33398 9.7319 1.68517 10.357 2.3103C10.9821 2.93542 11.3333 3.78326 11.3333 4.66732V6.66732M8.66667 10.6673C8.66667 11.0355 8.36819 11.334 8 11.334C7.63181 11.334 7.33333 11.0355 7.33333 10.6673C7.33333 10.2991 7.63181 10.0007 8 10.0007C8.36819 10.0007 8.66667 10.2991 8.66667 10.6673ZM3.33333 6.66732H12.6667C13.403 6.66732 14 7.26427 14 8.00065V13.334C14 14.0704 13.403 14.6673 12.6667 14.6673H3.33333C2.59695 14.6673 2 14.0704 2 13.334V8.00065C2 7.26427 2.59695 6.66732 3.33333 6.66732Z" stroke="#717A93" stroke-width="1.33333" stroke-linecap="round" stroke-linejoin="round"/>
</svg>
