<svg width="24" height="24" viewBox="0 0 24 24" fill="none" xmlns="http://www.w3.org/2000/svg">
<path d="M12 24C18.6274 24 24 18.6274 24 12C24 5.37258 18.6274 0 12 0C5.37258 0 0 5.37258 0 12C0 18.6274 5.37258 24 12 24Z" fill="#F05537"/>
<path d="M11.0119 7.75585C12.821 7.35382 14.6301 8.09087 15.6352 9.49795L7.63941 11.307C7.90743 9.58728 9.20284 8.15787 11.0119 7.75585ZM15.6799 14.3892C15.0545 15.3049 14.0941 15.9526 12.9997 16.1983C11.1906 16.6004 9.35918 15.8633 8.35412 14.4339L16.3722 12.6248L17.6677 12.3344L20.1691 11.7761C20.1468 11.24 20.0798 10.704 19.9681 10.1903C18.9631 5.87974 14.5631 3.17725 10.1632 4.18231C5.76331 5.18737 3.01615 9.47561 4.04354 13.8085C5.07093 18.1414 9.44852 20.8216 13.8484 19.8165C16.4392 19.2358 18.4494 17.4937 19.4768 15.2826L15.6799 14.3892Z" fill="white"/>
</svg>
