<svg width="31" height="30" viewBox="0 0 31 30" fill="none" xmlns="http://www.w3.org/2000/svg">
<mask id="path-1-outside-1_1758_32724" maskUnits="userSpaceOnUse" x="-0.1875" y="-0.1875" width="31" height="30" fill="black">
<rect fill="white" x="-0.1875" y="-0.1875" width="31" height="30"/>
<path fill-rule="evenodd" clip-rule="evenodd" d="M14.7905 0.8125H15.9283C16.1743 0.8125 16.3738 1.01086 16.3738 1.25556V10.9205C16.3738 10.9772 16.363 11.0315 16.3435 11.0814C16.0282 11.0042 15.6986 10.9632 15.3594 10.9632C15.0202 10.9632 14.6906 11.0042 14.3753 11.0814C14.3557 11.0315 14.345 10.9772 14.345 10.9205V1.25556C14.345 1.01086 14.5445 0.8125 14.7905 0.8125ZM14.2391 11.1172C14.2292 11.0814 14.2146 11.0462 14.195 11.0125L11.6553 6.64809C11.5321 6.43631 11.2595 6.36398 11.0466 6.48655L10.0618 7.05338C9.8489 7.17595 9.77618 7.447 9.89942 7.65878L12.4391 12.0232C12.4582 12.056 12.4808 12.0854 12.5063 12.1113C12.986 11.6496 13.5787 11.3032 14.2391 11.1172ZM12.3987 12.2187C12.3651 12.177 12.3234 12.1407 12.2741 12.1124L3.86339 7.27114C3.65045 7.14857 3.37793 7.22089 3.25469 7.43268L2.68476 8.41209C2.56152 8.62387 2.63424 8.89492 2.84718 9.01749L11.2579 13.8587C11.3081 13.8876 11.3616 13.9057 11.4157 13.9136C11.6022 13.2689 11.9442 12.6897 12.3987 12.2187ZM11.3791 14.0488C11.3441 14.04 11.3075 14.0353 11.2698 14.0353H6.19959C5.95356 14.0353 5.75411 14.2337 5.75411 14.4784V15.61C5.75411 15.8547 5.95356 16.0531 6.19959 16.0531H11.2698C11.3075 16.0531 11.3441 16.0484 11.3791 16.0396C11.2988 15.721 11.2562 15.3876 11.2562 15.0442C11.2562 14.7008 11.2988 14.3674 11.3791 14.0488ZM11.416 16.1758C11.3615 16.1836 11.3077 16.2018 11.2572 16.2308L2.84646 21.0721C2.63352 21.1946 2.5608 21.4657 2.68404 21.6775L3.25397 22.6569C3.37721 22.8686 3.64974 22.941 3.86268 22.8184L12.2734 17.9772C12.323 17.9486 12.3651 17.9119 12.3988 17.8698C11.9445 17.399 11.6026 16.8201 11.416 16.1758ZM12.5067 17.9775C12.4814 18.0033 12.4588 18.0326 12.4398 18.0653L9.90014 22.4297C9.7769 22.6415 9.84962 22.9125 10.0626 23.0351L11.0473 23.6019C11.2603 23.7245 11.5328 23.6522 11.656 23.4404L14.1957 19.076C14.2153 19.0423 14.2299 19.0072 14.2398 18.9714C13.5793 18.7855 12.9865 18.4392 12.5067 17.9775ZM14.3753 19.007C14.3557 19.0569 14.345 19.1112 14.345 19.1679V28.8329C14.345 29.0776 14.5445 29.2759 14.7905 29.2759H15.9283C16.1743 29.2759 16.3738 29.0776 16.3738 28.8329V19.1679C16.3738 19.1112 16.363 19.0569 16.3435 19.0071C16.0282 19.0842 15.6986 19.1252 15.3594 19.1252C15.0202 19.1252 14.6906 19.0842 14.3753 19.007ZM16.4793 18.9713C16.4892 19.0072 16.5039 19.0424 16.5235 19.0761L19.0632 23.4405C19.1864 23.6523 19.459 23.7246 19.6719 23.6021L20.6567 23.0352C20.8696 22.9126 20.9423 22.6416 20.8191 22.4298L18.2794 18.0654C18.2603 18.0327 18.2377 18.0033 18.2123 17.9774C17.7325 18.4391 17.1398 18.7854 16.4793 18.9713ZM18.3208 17.869C18.3545 17.9111 18.3965 17.9478 18.4462 17.9764L26.8569 22.8176C27.0698 22.9402 27.3424 22.8678 27.4656 22.6561L28.0355 21.6766C28.1588 21.4649 28.086 21.1938 27.8731 21.0712L19.4624 16.23C19.4118 16.2009 19.3577 16.1827 19.3032 16.1749C19.1167 16.8192 18.775 17.3982 18.3208 17.869ZM19.3398 16.0394C19.375 16.0483 19.4119 16.0531 19.4499 16.0531H24.5201C24.7661 16.0531 24.9656 15.8547 24.9656 15.61V14.4784C24.9656 14.2337 24.7661 14.0353 24.5201 14.0353H19.4499C19.4119 14.0353 19.375 14.0401 19.3398 14.049C19.4201 14.3675 19.4627 14.7009 19.4627 15.0442C19.4627 15.3875 19.4201 15.7209 19.3398 16.0394ZM19.3029 13.9128C19.3572 13.9049 19.4109 13.8868 19.4613 13.8578L27.872 9.01656C28.085 8.89399 28.1577 8.62294 28.0344 8.41116L27.4645 7.43175C27.3413 7.21996 27.0688 7.14764 26.8558 7.27021L18.4451 12.1114C18.3956 12.14 18.3536 12.1765 18.3199 12.2185C18.7744 12.6893 19.1163 13.2683 19.3029 13.9128ZM18.2125 12.1112C18.238 12.0853 18.2607 12.0559 18.2797 12.0231L20.8194 7.65864C20.9427 7.44686 20.87 7.17581 20.657 7.05324L19.6723 6.48641C19.4593 6.36384 19.1868 6.43617 19.0635 6.64795L16.5239 11.0124C16.5042 11.0461 16.4896 11.0813 16.4797 11.1172C17.1401 11.3032 17.7328 11.6495 18.2125 12.1112ZM8.57095 2.23276L7.58619 2.79959C7.37325 2.92216 7.30054 3.1932 7.42377 3.40499L8.38452 5.05601C8.50776 5.2678 8.78029 5.34012 8.99323 5.21755L9.97799 4.65072C10.1909 4.52815 10.2636 4.2571 10.1404 4.04532L9.17966 2.39429C9.05642 2.18251 8.78389 2.11019 8.57095 2.23276ZM3.17599 14.0353H1.25798C1.01195 14.0353 0.8125 14.2337 0.8125 14.4784V15.61C0.8125 15.8547 1.01195 16.0531 1.25798 16.0531H3.17599C3.42202 16.0531 3.62147 15.8547 3.62147 15.61V14.4784C3.62147 14.2337 3.42202 14.0353 3.17599 14.0353ZM21.5384 2.39563L20.5776 4.04666C20.4544 4.25844 20.5271 4.52949 20.74 4.65206L21.7248 5.21889C21.9377 5.34146 22.2103 5.26914 22.3335 5.05735L23.2943 3.40633C23.4175 3.19454 23.3448 2.9235 23.1318 2.80093L22.1471 2.2341C21.9341 2.11153 21.6616 2.18385 21.5384 2.39563ZM29.4611 14.0353H27.5431C27.2971 14.0353 27.0976 14.2337 27.0976 14.4784V15.61C27.0976 15.8547 27.2971 16.0531 27.5431 16.0531H29.4611C29.7071 16.0531 29.9066 15.8547 29.9066 15.61V14.4784C29.9066 14.2337 29.7071 14.0353 29.4611 14.0353ZM21.7248 24.8703L20.74 25.4372C20.5271 25.5597 20.4544 25.8308 20.5776 26.0426L21.5384 27.6936C21.6616 27.9054 21.9341 27.9777 22.1471 27.8551L23.1318 27.2883C23.3448 27.1657 23.4175 26.8947 23.2943 26.6829L22.3335 25.0319C22.2103 24.8201 21.9377 24.7478 21.7248 24.8703ZM8.3856 25.0326L7.42485 26.6836C7.30161 26.8954 7.37433 27.1664 7.58727 27.289L8.57203 27.8558C8.78497 27.9784 9.0575 27.9061 9.18074 27.6943L10.1415 26.0432C10.2647 25.8315 10.192 25.5604 9.97906 25.4378L8.9943 24.871C8.78136 24.7484 8.50883 24.8208 8.3856 25.0326Z"/>
</mask>
<path fill-rule="evenodd" clip-rule="evenodd" d="M14.7905 0.8125H15.9283C16.1743 0.8125 16.3738 1.01086 16.3738 1.25556V10.9205C16.3738 10.9772 16.363 11.0315 16.3435 11.0814C16.0282 11.0042 15.6986 10.9632 15.3594 10.9632C15.0202 10.9632 14.6906 11.0042 14.3753 11.0814C14.3557 11.0315 14.345 10.9772 14.345 10.9205V1.25556C14.345 1.01086 14.5445 0.8125 14.7905 0.8125ZM14.2391 11.1172C14.2292 11.0814 14.2146 11.0462 14.195 11.0125L11.6553 6.64809C11.5321 6.43631 11.2595 6.36398 11.0466 6.48655L10.0618 7.05338C9.8489 7.17595 9.77618 7.447 9.89942 7.65878L12.4391 12.0232C12.4582 12.056 12.4808 12.0854 12.5063 12.1113C12.986 11.6496 13.5787 11.3032 14.2391 11.1172ZM12.3987 12.2187C12.3651 12.177 12.3234 12.1407 12.2741 12.1124L3.86339 7.27114C3.65045 7.14857 3.37793 7.22089 3.25469 7.43268L2.68476 8.41209C2.56152 8.62387 2.63424 8.89492 2.84718 9.01749L11.2579 13.8587C11.3081 13.8876 11.3616 13.9057 11.4157 13.9136C11.6022 13.2689 11.9442 12.6897 12.3987 12.2187ZM11.3791 14.0488C11.3441 14.04 11.3075 14.0353 11.2698 14.0353H6.19959C5.95356 14.0353 5.75411 14.2337 5.75411 14.4784V15.61C5.75411 15.8547 5.95356 16.0531 6.19959 16.0531H11.2698C11.3075 16.0531 11.3441 16.0484 11.3791 16.0396C11.2988 15.721 11.2562 15.3876 11.2562 15.0442C11.2562 14.7008 11.2988 14.3674 11.3791 14.0488ZM11.416 16.1758C11.3615 16.1836 11.3077 16.2018 11.2572 16.2308L2.84646 21.0721C2.63352 21.1946 2.5608 21.4657 2.68404 21.6775L3.25397 22.6569C3.37721 22.8686 3.64974 22.941 3.86268 22.8184L12.2734 17.9772C12.323 17.9486 12.3651 17.9119 12.3988 17.8698C11.9445 17.399 11.6026 16.8201 11.416 16.1758ZM12.5067 17.9775C12.4814 18.0033 12.4588 18.0326 12.4398 18.0653L9.90014 22.4297C9.7769 22.6415 9.84962 22.9125 10.0626 23.0351L11.0473 23.6019C11.2603 23.7245 11.5328 23.6522 11.656 23.4404L14.1957 19.076C14.2153 19.0423 14.2299 19.0072 14.2398 18.9714C13.5793 18.7855 12.9865 18.4392 12.5067 17.9775ZM14.3753 19.007C14.3557 19.0569 14.345 19.1112 14.345 19.1679V28.8329C14.345 29.0776 14.5445 29.2759 14.7905 29.2759H15.9283C16.1743 29.2759 16.3738 29.0776 16.3738 28.8329V19.1679C16.3738 19.1112 16.363 19.0569 16.3435 19.0071C16.0282 19.0842 15.6986 19.1252 15.3594 19.1252C15.0202 19.1252 14.6906 19.0842 14.3753 19.007ZM16.4793 18.9713C16.4892 19.0072 16.5039 19.0424 16.5235 19.0761L19.0632 23.4405C19.1864 23.6523 19.459 23.7246 19.6719 23.6021L20.6567 23.0352C20.8696 22.9126 20.9423 22.6416 20.8191 22.4298L18.2794 18.0654C18.2603 18.0327 18.2377 18.0033 18.2123 17.9774C17.7325 18.4391 17.1398 18.7854 16.4793 18.9713ZM18.3208 17.869C18.3545 17.9111 18.3965 17.9478 18.4462 17.9764L26.8569 22.8176C27.0698 22.9402 27.3424 22.8678 27.4656 22.6561L28.0355 21.6766C28.1588 21.4649 28.086 21.1938 27.8731 21.0712L19.4624 16.23C19.4118 16.2009 19.3577 16.1827 19.3032 16.1749C19.1167 16.8192 18.775 17.3982 18.3208 17.869ZM19.3398 16.0394C19.375 16.0483 19.4119 16.0531 19.4499 16.0531H24.5201C24.7661 16.0531 24.9656 15.8547 24.9656 15.61V14.4784C24.9656 14.2337 24.7661 14.0353 24.5201 14.0353H19.4499C19.4119 14.0353 19.375 14.0401 19.3398 14.049C19.4201 14.3675 19.4627 14.7009 19.4627 15.0442C19.4627 15.3875 19.4201 15.7209 19.3398 16.0394ZM19.3029 13.9128C19.3572 13.9049 19.4109 13.8868 19.4613 13.8578L27.872 9.01656C28.085 8.89399 28.1577 8.62294 28.0344 8.41116L27.4645 7.43175C27.3413 7.21996 27.0688 7.14764 26.8558 7.27021L18.4451 12.1114C18.3956 12.14 18.3536 12.1765 18.3199 12.2185C18.7744 12.6893 19.1163 13.2683 19.3029 13.9128ZM18.2125 12.1112C18.238 12.0853 18.2607 12.0559 18.2797 12.0231L20.8194 7.65864C20.9427 7.44686 20.87 7.17581 20.657 7.05324L19.6723 6.48641C19.4593 6.36384 19.1868 6.43617 19.0635 6.64795L16.5239 11.0124C16.5042 11.0461 16.4896 11.0813 16.4797 11.1172C17.1401 11.3032 17.7328 11.6495 18.2125 12.1112ZM8.57095 2.23276L7.58619 2.79959C7.37325 2.92216 7.30054 3.1932 7.42377 3.40499L8.38452 5.05601C8.50776 5.2678 8.78029 5.34012 8.99323 5.21755L9.97799 4.65072C10.1909 4.52815 10.2636 4.2571 10.1404 4.04532L9.17966 2.39429C9.05642 2.18251 8.78389 2.11019 8.57095 2.23276ZM3.17599 14.0353H1.25798C1.01195 14.0353 0.8125 14.2337 0.8125 14.4784V15.61C0.8125 15.8547 1.01195 16.0531 1.25798 16.0531H3.17599C3.42202 16.0531 3.62147 15.8547 3.62147 15.61V14.4784C3.62147 14.2337 3.42202 14.0353 3.17599 14.0353ZM21.5384 2.39563L20.5776 4.04666C20.4544 4.25844 20.5271 4.52949 20.74 4.65206L21.7248 5.21889C21.9377 5.34146 22.2103 5.26914 22.3335 5.05735L23.2943 3.40633C23.4175 3.19454 23.3448 2.9235 23.1318 2.80093L22.1471 2.2341C21.9341 2.11153 21.6616 2.18385 21.5384 2.39563ZM29.4611 14.0353H27.5431C27.2971 14.0353 27.0976 14.2337 27.0976 14.4784V15.61C27.0976 15.8547 27.2971 16.0531 27.5431 16.0531H29.4611C29.7071 16.0531 29.9066 15.8547 29.9066 15.61V14.4784C29.9066 14.2337 29.7071 14.0353 29.4611 14.0353ZM21.7248 24.8703L20.74 25.4372C20.5271 25.5597 20.4544 25.8308 20.5776 26.0426L21.5384 27.6936C21.6616 27.9054 21.9341 27.9777 22.1471 27.8551L23.1318 27.2883C23.3448 27.1657 23.4175 26.8947 23.2943 26.6829L22.3335 25.0319C22.2103 24.8201 21.9377 24.7478 21.7248 24.8703ZM8.3856 25.0326L7.42485 26.6836C7.30161 26.8954 7.37433 27.1664 7.58727 27.289L8.57203 27.8558C8.78497 27.9784 9.0575 27.9061 9.18074 27.6943L10.1415 26.0432C10.2647 25.8315 10.192 25.5604 9.97906 25.4378L8.9943 24.871C8.78136 24.7484 8.50883 24.8208 8.3856 25.0326Z" fill="#F04400"/>
<path d="M16.3435 11.0814L16.2259 11.5618L16.6461 11.6647L16.804 11.2619L16.3435 11.0814ZM14.3753 11.0814L13.9148 11.2619L14.0727 11.6647L14.4929 11.5618L14.3753 11.0814ZM14.2391 11.1172L14.3732 11.5933L14.8471 11.4599L14.7159 10.9854L14.2391 11.1172ZM14.195 11.0125L14.6225 10.7637L14.6225 10.7637L14.195 11.0125ZM11.6553 6.64809L12.0828 6.39931L12.0828 6.39931L11.6553 6.64809ZM11.0466 6.48655L11.2934 6.91526L11.2934 6.91526L11.0466 6.48655ZM10.0618 7.05338L9.81508 6.62468L9.81508 6.62468L10.0618 7.05338ZM9.89942 7.65878L9.47189 7.90757V7.90757L9.89942 7.65878ZM12.4391 12.0232L12.8666 11.7744L12.4391 12.0232ZM12.5063 12.1113L12.1535 12.4581L12.4966 12.8071L12.8493 12.4677L12.5063 12.1113ZM12.2741 12.1124L12.0273 12.5411L12.2741 12.1124ZM12.3987 12.2187L12.7546 12.5622L13.0576 12.2483L12.784 11.9085L12.3987 12.2187ZM3.86339 7.27114L4.11016 6.84244H4.11016L3.86339 7.27114ZM3.25469 7.43268L3.68222 7.68146L3.25469 7.43268ZM2.68476 8.41209L3.11229 8.66087H3.11229L2.68476 8.41209ZM2.84718 9.01749L3.09394 8.58879H3.09394L2.84718 9.01749ZM11.2579 13.8587L11.0111 14.2874L11.0111 14.2874L11.2579 13.8587ZM11.4157 13.9136L11.3437 14.403L11.7709 14.4659L11.8909 14.0511L11.4157 13.9136ZM11.3791 14.0488L11.8588 14.1697L11.9798 13.6895L11.4995 13.569L11.3791 14.0488ZM11.3791 16.0396L11.4995 16.5194L11.9798 16.3989L11.8588 15.9187L11.3791 16.0396ZM11.416 16.1758L11.8911 16.0382L11.7713 15.6245L11.3451 15.6862L11.416 16.1758ZM11.2572 16.2308L11.5039 16.6595L11.5039 16.6595L11.2572 16.2308ZM2.84646 21.0721L2.5997 20.6434H2.5997L2.84646 21.0721ZM2.68404 21.6775L2.25651 21.9262L2.25651 21.9262L2.68404 21.6775ZM3.25397 22.6569L3.6815 22.4081L3.6815 22.4081L3.25397 22.6569ZM3.86268 22.8184L3.61591 22.3897H3.61591L3.86268 22.8184ZM12.2734 17.9772L12.0266 17.5485L12.0266 17.5485L12.2734 17.9772ZM12.3988 17.8698L12.785 18.1788L13.0568 17.8393L12.7547 17.5263L12.3988 17.8698ZM12.5067 17.9775L12.8496 17.6211L12.4966 17.2814L12.1535 17.6311L12.5067 17.9775ZM12.4398 18.0653L12.8674 18.314V18.314L12.4398 18.0653ZM9.90014 22.4297L9.47261 22.1809V22.1809L9.90014 22.4297ZM10.0626 23.0351L9.81579 23.4638L10.0626 23.0351ZM11.0473 23.6019L11.2941 23.1732H11.2941L11.0473 23.6019ZM11.656 23.4404L11.2285 23.1916V23.1916L11.656 23.4404ZM14.1957 19.076L13.7682 18.8272H13.7682L14.1957 19.076ZM14.2398 18.9714L14.7165 19.1034L14.848 18.6287L14.3738 18.4952L14.2398 18.9714ZM14.3753 19.007L14.4929 18.5266L14.0727 18.4237L13.9148 18.8265L14.3753 19.007ZM16.3435 19.0071L16.804 18.8265L16.6461 18.4237L16.2259 18.5266L16.3435 19.0071ZM16.4793 18.9713L16.3453 18.4952L15.8714 18.6286L16.0025 19.1031L16.4793 18.9713ZM16.5235 19.0761L16.951 18.8273V18.8273L16.5235 19.0761ZM19.0632 23.4405L18.6357 23.6893L18.6357 23.6893L19.0632 23.4405ZM19.6719 23.6021L19.9187 24.0308L19.9187 24.0308L19.6719 23.6021ZM20.6567 23.0352L20.9034 23.4639L20.6567 23.0352ZM20.8191 22.4298L21.2466 22.181L21.2466 22.181L20.8191 22.4298ZM18.2794 18.0654L18.7069 17.8166L18.7069 17.8166L18.2794 18.0654ZM18.2123 17.9774L18.5652 17.6307L18.2221 17.2815L17.8693 17.621L18.2123 17.9774ZM18.3208 17.869L17.9648 17.5256L17.6629 17.8386L17.9346 18.1782L18.3208 17.869ZM18.4462 17.9764L18.693 17.5477L18.693 17.5477L18.4462 17.9764ZM26.8569 22.8176L26.6101 23.2463L26.6101 23.2463L26.8569 22.8176ZM27.4656 22.6561L27.8931 22.9048V22.9048L27.4656 22.6561ZM28.0355 21.6766L27.608 21.4279L27.608 21.4279L28.0355 21.6766ZM27.8731 21.0712L28.1199 20.6425L27.8731 21.0712ZM19.4624 16.23L19.7092 15.8013L19.7092 15.8013L19.4624 16.23ZM19.3032 16.1749L19.3735 15.6853L18.9476 15.624L18.828 16.0374L19.3032 16.1749ZM19.3398 16.0394L18.8601 15.9186L18.7394 16.3978L19.2186 16.519L19.3398 16.0394ZM19.3398 14.049L19.2185 13.5694L18.7394 13.6906L18.8601 14.1698L19.3398 14.049ZM19.4613 13.8578L19.7081 14.2865L19.7081 14.2865L19.4613 13.8578ZM19.3029 13.9128L18.8278 14.0504L18.9477 14.4644L19.3743 14.4023L19.3029 13.9128ZM27.872 9.01656L27.6253 8.58786L27.872 9.01656ZM28.0344 8.41116L27.6069 8.65994V8.65994L28.0344 8.41116ZM27.4645 7.43175L27.037 7.68053L27.037 7.68053L27.4645 7.43175ZM26.8558 7.27021L26.609 6.84151L26.8558 7.27021ZM18.4451 12.1114L18.6919 12.5401L18.6919 12.5401L18.4451 12.1114ZM18.3199 12.2185L17.934 11.9091L17.6617 12.2488L17.964 12.562L18.3199 12.2185ZM18.2125 12.1112L17.8695 12.4676L18.2221 12.807L18.5652 12.458L18.2125 12.1112ZM18.2797 12.0231L18.7073 12.2718L18.7073 12.2718L18.2797 12.0231ZM20.8194 7.65864L20.3919 7.40986V7.40986L20.8194 7.65864ZM20.657 7.05324L20.9038 6.62454L20.9038 6.62454L20.657 7.05324ZM19.6723 6.48641L19.4255 6.91511L19.4255 6.91511L19.6723 6.48641ZM19.0635 6.64795L18.636 6.39917V6.39917L19.0635 6.64795ZM16.5239 11.0124L16.0963 10.7636L16.0963 10.7636L16.5239 11.0124ZM16.4797 11.1172L16.0029 10.9855L15.8718 11.4599L16.3456 11.5933L16.4797 11.1172ZM7.58619 2.79959L7.33943 2.37089V2.37089L7.58619 2.79959ZM8.57095 2.23276L8.81771 2.66146L8.57095 2.23276ZM7.42377 3.40499L6.99624 3.65377L6.99624 3.65377L7.42377 3.40499ZM8.38452 5.05601L7.95699 5.3048L7.95699 5.3048L8.38452 5.05601ZM8.99323 5.21755L8.74646 4.78885L8.74646 4.78885L8.99323 5.21755ZM9.97799 4.65072L10.2247 5.07942L10.2247 5.07942L9.97799 4.65072ZM10.1404 4.04532L9.71287 4.29411L9.71287 4.29411L10.1404 4.04532ZM9.17966 2.39429L8.75213 2.64308V2.64308L9.17966 2.39429ZM20.5776 4.04666L20.1501 3.79788L20.1501 3.79788L20.5776 4.04666ZM21.5384 2.39563L21.1108 2.14685V2.14685L21.5384 2.39563ZM20.74 4.65206L20.4933 5.08076V5.08076L20.74 4.65206ZM21.7248 5.21889L21.478 5.64759L21.478 5.64759L21.7248 5.21889ZM22.3335 5.05735L22.761 5.30614V5.30614L22.3335 5.05735ZM23.2943 3.40633L23.7218 3.65511L23.7218 3.65511L23.2943 3.40633ZM23.1318 2.80093L23.3786 2.37223V2.37222L23.1318 2.80093ZM22.1471 2.2341L22.3938 1.80539L22.3938 1.80539L22.1471 2.2341ZM20.74 25.4372L20.4933 25.0085L20.74 25.4372ZM21.7248 24.8703L21.478 24.4416L21.478 24.4416L21.7248 24.8703ZM20.5776 26.0426L20.1501 26.2913L20.1501 26.2913L20.5776 26.0426ZM21.5384 27.6936L21.9659 27.4448L21.9659 27.4448L21.5384 27.6936ZM22.1471 27.8551L21.9003 27.4264V27.4264L22.1471 27.8551ZM23.1318 27.2883L23.3786 27.717V27.717L23.1318 27.2883ZM23.2943 26.6829L23.7218 26.4341L23.7218 26.4341L23.2943 26.6829ZM22.3335 25.0319L21.906 25.2806L21.906 25.2806L22.3335 25.0319ZM7.42485 26.6836L6.99732 26.4348L7.42485 26.6836ZM8.3856 25.0326L8.81313 25.2813L8.81313 25.2813L8.3856 25.0326ZM7.58727 27.289L7.3405 27.7177H7.34051L7.58727 27.289ZM8.57203 27.8558L8.32527 28.2845L8.32527 28.2845L8.57203 27.8558ZM9.18074 27.6943L9.60827 27.9431L9.18074 27.6943ZM10.1415 26.0432L10.569 26.292V26.292L10.1415 26.0432ZM9.97906 25.4378L9.7323 25.8665L9.7323 25.8665L9.97906 25.4378ZM8.9943 24.871L8.74754 25.2997H8.74754L8.9943 24.871ZM15.9283 0.317851H14.7905V1.30715H15.9283V0.317851ZM16.8684 1.25556C16.8684 0.735142 16.445 0.317851 15.9283 0.317851V1.30715C15.9037 1.30715 15.8791 1.28659 15.8791 1.25556H16.8684ZM16.8684 10.9205V1.25556H15.8791V10.9205H16.8684ZM16.804 11.2619C16.8457 11.1555 16.8684 11.04 16.8684 10.9205H15.8791C15.8791 10.9144 15.8803 10.9075 15.883 10.9008L16.804 11.2619ZM15.3594 11.4579C15.6587 11.4579 15.9488 11.494 16.2259 11.5618L16.4611 10.6009C16.1076 10.5144 15.7386 10.4686 15.3594 10.4686V11.4579ZM14.4929 11.5618C14.77 11.494 15.0601 11.4579 15.3594 11.4579V10.4686C14.9803 10.4686 14.6112 10.5144 14.2577 10.6009L14.4929 11.5618ZM13.8504 10.9205C13.8504 11.0401 13.873 11.1555 13.9148 11.2619L14.8358 10.9008C14.8384 10.9075 14.8397 10.9144 14.8397 10.9205H13.8504ZM13.8504 1.25556V10.9205H14.8397V1.25556H13.8504ZM14.7905 0.317851C14.2738 0.317851 13.8504 0.735141 13.8504 1.25556H14.8397C14.8397 1.28659 14.8151 1.30715 14.7905 1.30715V0.317851ZM14.7159 10.9854C14.6948 10.9089 14.6636 10.8344 14.6225 10.7637L13.7675 11.2613C13.7655 11.258 13.7637 11.2538 13.7624 11.249L14.7159 10.9854ZM14.6225 10.7637L12.0828 6.39931L11.2278 6.89688L13.7675 11.2613L14.6225 10.7637ZM12.0828 6.39931C11.822 5.95111 11.2477 5.80008 10.7998 6.05785L11.2934 6.91526C11.2714 6.92789 11.2421 6.92151 11.2278 6.89688L12.0828 6.39931ZM10.7998 6.05785L9.81508 6.62468L10.3086 7.48209L11.2934 6.91526L10.7998 6.05785ZM9.81508 6.62468C9.36569 6.88335 9.21015 7.45778 9.47189 7.90757L10.327 7.41C10.3422 7.43623 10.3321 7.46855 10.3086 7.48209L9.81508 6.62468ZM9.47189 7.90757L12.0116 12.272L12.8666 11.7744L10.327 7.41L9.47189 7.90757ZM12.0116 12.272C12.0516 12.3407 12.0994 12.403 12.1535 12.4581L12.859 11.7645C12.8622 11.7678 12.8648 11.7712 12.8666 11.7744L12.0116 12.272ZM12.8493 12.4677C13.2715 12.0613 13.7929 11.7568 14.3732 11.5933L14.1051 10.6411C13.3646 10.8496 12.7005 11.2378 12.1633 11.7549L12.8493 12.4677ZM12.0273 12.5411C12.0227 12.5384 12.0177 12.5343 12.0134 12.5289L12.784 11.9085C12.7125 11.8198 12.624 11.743 12.5208 11.6837L12.0273 12.5411ZM3.61663 7.69984L12.0273 12.5411L12.5208 11.6837L4.11016 6.84244L3.61663 7.69984ZM3.68222 7.68146C3.66788 7.7061 3.63858 7.71247 3.61663 7.69984L4.11016 6.84244C3.66233 6.58467 3.08797 6.73569 2.82715 7.18389L3.68222 7.68146ZM3.11229 8.66087L3.68222 7.68146L2.82715 7.18389L2.25723 8.1633L3.11229 8.66087ZM3.09394 8.58879C3.11745 8.60232 3.12755 8.63465 3.11229 8.66087L2.25723 8.1633C1.99549 8.6131 2.15103 9.18752 2.60042 9.44619L3.09394 8.58879ZM11.5046 13.43L3.09394 8.58879L2.60042 9.44619L11.0111 14.2874L11.5046 13.43ZM11.4877 13.4243C11.494 13.4252 11.5 13.4273 11.5046 13.43L11.0111 14.2874C11.1162 14.3479 11.2291 14.3862 11.3437 14.403L11.4877 13.4243ZM11.8909 14.0511C12.0544 13.4857 12.3546 12.9767 12.7546 12.5622L12.0428 11.8752C11.5337 12.4027 11.15 13.0522 10.9405 13.7762L11.8909 14.0511ZM11.2698 14.53C11.2666 14.53 11.2628 14.5296 11.2587 14.5286L11.4995 13.569C11.4255 13.5504 11.3484 13.5407 11.2698 13.5407V14.53ZM6.19959 14.53H11.2698V13.5407H6.19959V14.53ZM6.24876 14.4784C6.24876 14.5094 6.2242 14.53 6.19959 14.53V13.5407C5.68292 13.5407 5.25946 13.958 5.25946 14.4784H6.24876ZM6.24876 15.61V14.4784H5.25946V15.61H6.24876ZM6.19959 15.5584C6.22421 15.5584 6.24876 15.579 6.24876 15.61H5.25946C5.25946 16.1304 5.68292 16.5477 6.19959 16.5477V15.5584ZM11.2698 15.5584H6.19959V16.5477H11.2698V15.5584ZM11.2587 15.5599C11.2628 15.5588 11.2666 15.5584 11.2698 15.5584V16.5477C11.3484 16.5477 11.4255 16.538 11.4995 16.5194L11.2587 15.5599ZM11.8588 15.9187C11.7884 15.6393 11.7508 15.3465 11.7508 15.0442H10.7615C10.7615 15.4287 10.8093 15.8027 10.8995 16.1605L11.8588 15.9187ZM11.7508 15.0442C11.7508 14.7419 11.7884 14.4491 11.8588 14.1697L10.8995 13.9279C10.8093 14.2857 10.7615 14.6597 10.7615 15.0442H11.7508ZM11.3451 15.6862C11.2298 15.7029 11.1161 15.7413 11.0104 15.8021L11.5039 16.6595C11.4992 16.6622 11.4933 16.6644 11.4869 16.6653L11.3451 15.6862ZM11.0104 15.8021L2.5997 20.6434L3.09323 21.5008L11.5039 16.6595L11.0104 15.8021ZM2.5997 20.6434C2.15031 20.902 1.99477 21.4764 2.25651 21.9262L3.11157 21.4287C3.12684 21.4549 3.11673 21.4872 3.09323 21.5008L2.5997 20.6434ZM2.25651 21.9262L2.82644 22.9056L3.6815 22.4081L3.11157 21.4287L2.25651 21.9262ZM2.82644 22.9056C3.08725 23.3538 3.66161 23.5049 4.10944 23.2471L3.61591 22.3897C3.63786 22.3771 3.66717 22.3834 3.6815 22.4081L2.82644 22.9056ZM4.10944 23.2471L12.5201 18.4059L12.0266 17.5485L3.61591 22.3897L4.10944 23.2471ZM12.5201 18.4059C12.6241 18.346 12.7132 18.2685 12.785 18.1788L12.0126 17.5607C12.0169 17.5553 12.022 17.5511 12.0266 17.5485L12.5201 18.4059ZM12.7547 17.5263C12.3549 17.112 12.0547 16.6033 11.8911 16.0382L10.9408 16.3133C11.1504 17.0369 11.5341 17.6861 12.0429 18.2133L12.7547 17.5263ZM12.1535 17.6311C12.0998 17.686 12.0521 17.748 12.0123 17.8165L12.8674 18.314C12.8655 18.3173 12.863 18.3207 12.8598 18.3239L12.1535 17.6311ZM12.0123 17.8165L9.47261 22.1809L10.3277 22.6785L12.8674 18.314L12.0123 17.8165ZM9.47261 22.1809C9.21087 22.6307 9.3664 23.2051 9.81579 23.4638L10.3093 22.6064C10.3328 22.6199 10.3429 22.6522 10.3277 22.6785L9.47261 22.1809ZM9.81579 23.4638L10.8006 24.0306L11.2941 23.1732L10.3093 22.6064L9.81579 23.4638ZM10.8006 24.0306C11.2484 24.2884 11.8227 24.1374 12.0836 23.6892L11.2285 23.1916C11.2428 23.167 11.2721 23.1606 11.2941 23.1732L10.8006 24.0306ZM12.0836 23.6892L14.6232 19.3247L13.7682 18.8272L11.2285 23.1916L12.0836 23.6892ZM14.6232 19.3247C14.6643 19.2542 14.6954 19.1797 14.7165 19.1034L13.7631 18.8394C13.7644 18.8346 13.7663 18.8305 13.7682 18.8272L14.6232 19.3247ZM14.3738 18.4952C13.7934 18.3319 13.272 18.0274 12.8496 17.6211L12.1637 18.3339C12.701 18.851 13.3652 19.2391 14.1058 19.4475L14.3738 18.4952ZM14.8397 19.1679C14.8397 19.174 14.8384 19.1809 14.8358 19.1876L13.9148 18.8265C13.8731 18.9329 13.8504 19.0484 13.8504 19.1679H14.8397ZM14.8397 28.8329V19.1679H13.8504V28.8329H14.8397ZM14.7905 28.7813C14.8151 28.7813 14.8397 28.8018 14.8397 28.8329H13.8504C13.8504 29.3533 14.2738 29.7706 14.7905 29.7706V28.7813ZM15.9283 28.7813H14.7905V29.7706H15.9283V28.7813ZM15.8791 28.8329C15.8791 28.8018 15.9037 28.7813 15.9283 28.7813V29.7706C16.445 29.7706 16.8684 29.3533 16.8684 28.8329H15.8791ZM15.8791 19.1679V28.8329H16.8684V19.1679H15.8791ZM15.883 19.1876C15.8803 19.1809 15.8791 19.174 15.8791 19.1679H16.8684C16.8684 19.0484 16.8457 18.9329 16.804 18.8265L15.883 19.1876ZM16.2259 18.5266C15.9488 18.5944 15.6587 18.6305 15.3594 18.6305V19.6198C15.7386 19.6198 16.1076 19.574 16.4611 19.4875L16.2259 18.5266ZM15.3594 18.6305C15.0601 18.6305 14.77 18.5944 14.4929 18.5266L14.2577 19.4875C14.6112 19.574 14.9803 19.6198 15.3594 19.6198V18.6305ZM16.0025 19.1031C16.0237 19.1796 16.0548 19.2542 16.096 19.3249L16.951 18.8273C16.953 18.8306 16.9548 18.8348 16.9561 18.8396L16.0025 19.1031ZM16.096 19.3249L18.6357 23.6893L19.4907 23.1917L16.951 18.8273L16.096 19.3249ZM18.6357 23.6893C18.8965 24.1375 19.4708 24.2885 19.9187 24.0308L19.4251 23.1733C19.4471 23.1607 19.4764 23.1671 19.4907 23.1917L18.6357 23.6893ZM19.9187 24.0308L20.9034 23.4639L20.4099 22.6065L19.4251 23.1733L19.9187 24.0308ZM20.9034 23.4639C21.3528 23.2052 21.5083 22.6308 21.2466 22.181L20.3915 22.6786C20.3763 22.6524 20.3864 22.6201 20.4099 22.6065L20.9034 23.4639ZM21.2466 22.181L18.7069 17.8166L17.8519 18.3142L20.3915 22.6786L21.2466 22.181ZM18.7069 17.8166C18.667 17.748 18.6192 17.6857 18.5652 17.6307L17.8594 18.3241C17.8563 18.3208 17.8537 18.3174 17.8519 18.3142L18.7069 17.8166ZM17.8693 17.621C17.447 18.0273 16.9257 18.3318 16.3453 18.4952L16.6134 19.4475C17.3539 19.239 18.018 18.8508 18.5553 18.3338L17.8693 17.621ZM17.9346 18.1782C18.0064 18.2678 18.0955 18.3452 18.1994 18.4051L18.693 17.5477C18.6976 17.5503 18.7026 17.5545 18.707 17.5599L17.9346 18.1782ZM18.1994 18.4051L26.6101 23.2463L27.1036 22.3889L18.693 17.5477L18.1994 18.4051ZM26.6101 23.2463C27.0579 23.5041 27.6323 23.353 27.8931 22.9048L27.0381 22.4073C27.0524 22.3826 27.0817 22.3763 27.1036 22.3889L26.6101 23.2463ZM27.8931 22.9048L28.4631 21.9254L27.608 21.4279L27.0381 22.4073L27.8931 22.9048ZM28.4631 21.9254C28.7248 21.4756 28.5693 20.9012 28.1199 20.6425L27.6263 21.4999C27.6028 21.4864 27.5927 21.4541 27.608 21.4279L28.4631 21.9254ZM28.1199 20.6425L19.7092 15.8013L19.2156 16.6587L27.6263 21.4999L28.1199 20.6425ZM19.7092 15.8013C19.6032 15.7403 19.4891 15.7019 19.3735 15.6853L19.2328 16.6645C19.2263 16.6636 19.2204 16.6614 19.2156 16.6587L19.7092 15.8013ZM18.828 16.0374C18.6645 16.6025 18.3645 17.1112 17.9648 17.5256L18.6768 18.2124C19.1855 17.6851 19.569 17.036 19.7783 16.3124L18.828 16.0374ZM19.2186 16.519C19.2931 16.5378 19.3707 16.5477 19.4499 16.5477V15.5584C19.4531 15.5584 19.4569 15.5588 19.461 15.5599L19.2186 16.519ZM19.4499 16.5477H24.5201V15.5584H19.4499V16.5477ZM24.5201 16.5477C25.0368 16.5477 25.4602 16.1304 25.4602 15.61H24.4709C24.4709 15.579 24.4955 15.5584 24.5201 15.5584V16.5477ZM25.4602 15.61V14.4784H24.4709V15.61H25.4602ZM25.4602 14.4784C25.4602 13.958 25.0368 13.5407 24.5201 13.5407V14.53C24.4955 14.53 24.4709 14.5094 24.4709 14.4784H25.4602ZM24.5201 13.5407H19.4499V14.53H24.5201V13.5407ZM19.4499 13.5407C19.3707 13.5407 19.2931 13.5506 19.2185 13.5694L19.4611 14.5285C19.4569 14.5296 19.4531 14.53 19.4499 14.53V13.5407ZM18.8601 14.1698C18.9305 14.4492 18.968 14.742 18.968 15.0442H19.9573C19.9573 14.6598 19.9096 14.2858 19.8195 13.9281L18.8601 14.1698ZM18.968 15.0442C18.968 15.3464 18.9305 15.6392 18.8601 15.9186L19.8195 16.1603C19.9096 15.8026 19.9573 15.4286 19.9573 15.0442H18.968ZM19.2146 13.4291C19.2193 13.4264 19.2252 13.4242 19.2316 13.4233L19.3743 14.4023C19.4892 14.3855 19.6026 14.3472 19.7081 14.2865L19.2146 13.4291ZM27.6253 8.58786L19.2146 13.4291L19.7081 14.2865L28.1188 9.44526L27.6253 8.58786ZM27.6069 8.65994C27.5917 8.63372 27.6018 8.60139 27.6253 8.58786L28.1188 9.44526C28.5682 9.18659 28.7237 8.61217 28.462 8.16237L27.6069 8.65994ZM27.037 7.68053L27.6069 8.65994L28.462 8.16237L27.892 7.18296L27.037 7.68053ZM27.1026 7.69891C27.0806 7.71154 27.0513 7.70516 27.037 7.68053L27.892 7.18297C27.6312 6.73476 27.0569 6.58374 26.609 6.84151L27.1026 7.69891ZM18.6919 12.5401L27.1026 7.69891L26.609 6.84151L18.1984 11.6827L18.6919 12.5401ZM18.7059 12.5279C18.7015 12.5333 18.6965 12.5375 18.6919 12.5401L18.1984 11.6827C18.0946 11.7424 18.0057 11.8197 17.934 11.9091L18.7059 12.5279ZM17.964 12.562C18.364 12.9764 18.6642 13.4851 18.8278 14.0504L19.7781 13.7752C19.5685 13.0515 19.1848 12.4023 18.6759 11.875L17.964 12.562ZM18.5652 12.458C18.6193 12.403 18.6672 12.3407 18.7073 12.2718L17.8522 11.7743C17.8541 11.7711 17.8566 11.7676 17.8598 11.7644L18.5652 12.458ZM18.7073 12.2718L21.247 7.90743L20.3919 7.40986L17.8522 11.7743L18.7073 12.2718ZM21.247 7.90743C21.5087 7.45764 21.3532 6.88321 20.9038 6.62454L20.4102 7.48195C20.3867 7.46841 20.3766 7.43608 20.3919 7.40986L21.247 7.90743ZM20.9038 6.62454L19.919 6.05771L19.4255 6.91511L20.4103 7.48195L20.9038 6.62454ZM19.919 6.05771C19.4712 5.79994 18.8968 5.95097 18.636 6.39917L19.4911 6.89674C19.4767 6.92137 19.4474 6.92775 19.4255 6.91511L19.919 6.05771ZM18.636 6.39917L16.0963 10.7636L16.9514 11.2611L19.4911 6.89673L18.636 6.39917ZM16.0963 10.7636C16.0552 10.8343 16.024 10.9089 16.0029 10.9855L16.9565 11.2489C16.9551 11.2537 16.9533 11.2578 16.9514 11.2611L16.0963 10.7636ZM16.3456 11.5933C16.9259 11.7568 17.4473 12.0612 17.8695 12.4676L18.5555 11.7548C18.0183 11.2378 17.3542 10.8496 16.6138 10.6411L16.3456 11.5933ZM7.83296 3.22829L8.81771 2.66146L8.32419 1.80405L7.33943 2.37089L7.83296 3.22829ZM7.85131 3.1562C7.86657 3.18243 7.85647 3.21476 7.83296 3.22829L7.33943 2.37089C6.89004 2.62956 6.7345 3.20398 6.99624 3.65377L7.85131 3.1562ZM8.81205 4.80723L7.85131 3.1562L6.99624 3.65377L7.95699 5.3048L8.81205 4.80723ZM8.74646 4.78885C8.76841 4.77622 8.79772 4.7826 8.81205 4.80723L7.95699 5.3048C8.2178 5.753 8.79216 5.90402 9.23999 5.64625L8.74646 4.78885ZM9.73122 4.22202L8.74646 4.78885L9.23999 5.64625L10.2247 5.07942L9.73122 4.22202ZM9.71287 4.29411C9.69761 4.26788 9.70771 4.23555 9.73122 4.22202L10.2247 5.07942C10.6741 4.82075 10.8297 4.24633 10.5679 3.79654L9.71287 4.29411ZM8.75213 2.64308L9.71287 4.29411L10.5679 3.79654L9.60719 2.14551L8.75213 2.64308ZM8.81771 2.66146C8.79577 2.67409 8.76646 2.66771 8.75213 2.64308L9.60719 2.14551C9.34638 1.69731 8.77201 1.54628 8.32419 1.80405L8.81771 2.66146ZM1.25798 14.53H3.17599V13.5407H1.25798V14.53ZM1.30715 14.4784C1.30715 14.5094 1.28259 14.53 1.25798 14.53V13.5407C0.741304 13.5407 0.317851 13.958 0.317851 14.4784H1.30715ZM1.30715 15.61V14.4784H0.317851V15.61H1.30715ZM1.25798 15.5584C1.28259 15.5584 1.30715 15.579 1.30715 15.61H0.317851C0.317851 16.1304 0.741303 16.5477 1.25798 16.5477V15.5584ZM3.17599 15.5584H1.25798V16.5477H3.17599V15.5584ZM3.12682 15.61C3.12682 15.579 3.15138 15.5584 3.17599 15.5584V16.5477C3.69267 16.5477 4.11612 16.1304 4.11612 15.61H3.12682ZM3.12682 14.4784V15.61H4.11612V14.4784H3.12682ZM3.17599 14.53C3.15138 14.53 3.12682 14.5094 3.12682 14.4784H4.11612C4.11612 13.958 3.69267 13.5407 3.17599 13.5407V14.53ZM21.0052 4.29544L21.9659 2.64442L21.1108 2.14685L20.1501 3.79788L21.0052 4.29544ZM20.9868 4.22336C21.0103 4.23689 21.0204 4.26922 21.0052 4.29544L20.1501 3.79788C19.8884 4.24767 20.0439 4.82209 20.4933 5.08076L20.9868 4.22336ZM21.9716 4.79019L20.9868 4.22336L20.4933 5.08076L21.478 5.64759L21.9716 4.79019ZM21.906 4.80857C21.9203 4.78394 21.9496 4.77756 21.9716 4.79019L21.478 5.64759C21.9259 5.90536 22.5002 5.75434 22.761 5.30614L21.906 4.80857ZM22.8667 3.15754L21.906 4.80857L22.761 5.30614L23.7218 3.65511L22.8667 3.15754ZM22.8851 3.22963C22.8616 3.2161 22.8515 3.18377 22.8667 3.15754L23.7218 3.65511C23.9835 3.20532 23.828 2.6309 23.3786 2.37223L22.8851 3.22963ZM21.9003 2.6628L22.8851 3.22963L23.3786 2.37222L22.3938 1.80539L21.9003 2.6628ZM21.9659 2.64442C21.9516 2.66905 21.9223 2.67543 21.9003 2.6628L22.3938 1.80539C21.946 1.54762 21.3716 1.69865 21.1108 2.14685L21.9659 2.64442ZM27.5431 14.53H29.4611V13.5407H27.5431V14.53ZM27.5923 14.4784C27.5923 14.5094 27.5677 14.53 27.5431 14.53V13.5407C27.0264 13.5407 26.603 13.958 26.603 14.4784H27.5923ZM27.5923 15.61V14.4784H26.603V15.61H27.5923ZM27.5431 15.5584C27.5677 15.5584 27.5923 15.579 27.5923 15.61H26.603C26.603 16.1304 27.0264 16.5477 27.5431 16.5477V15.5584ZM29.4611 15.5584H27.5431V16.5477H29.4611V15.5584ZM29.4119 15.61C29.4119 15.579 29.4365 15.5584 29.4611 15.5584V16.5477C29.9778 16.5477 30.4012 16.1304 30.4012 15.61H29.4119ZM29.4119 14.4784V15.61H30.4012V14.4784H29.4119ZM29.4611 14.53C29.4365 14.53 29.4119 14.5094 29.4119 14.4784H30.4012C30.4012 13.958 29.9778 13.5407 29.4611 13.5407V14.53ZM20.9868 25.8659L21.9716 25.299L21.478 24.4416L20.4933 25.0085L20.9868 25.8659ZM21.0052 25.7938C21.0204 25.82 21.0103 25.8523 20.9868 25.8659L20.4933 25.0085C20.0439 25.2671 19.8884 25.8415 20.1501 26.2913L21.0052 25.7938ZM21.9659 27.4448L21.0052 25.7938L20.1501 26.2913L21.1108 27.9424L21.9659 27.4448ZM21.9003 27.4264C21.9223 27.4138 21.9516 27.4202 21.9659 27.4448L21.1108 27.9424C21.3716 28.3906 21.946 28.5416 22.3938 28.2838L21.9003 27.4264ZM22.8851 26.8596L21.9003 27.4264L22.3938 28.2838L23.3786 27.717L22.8851 26.8596ZM22.8667 26.9317C22.8515 26.9054 22.8616 26.8731 22.8851 26.8596L23.3786 27.717C23.828 27.4583 23.9835 26.8839 23.7218 26.4341L22.8667 26.9317ZM21.906 25.2806L22.8667 26.9317L23.7218 26.4341L22.761 24.7831L21.906 25.2806ZM21.9716 25.299C21.9496 25.3117 21.9203 25.3053 21.906 25.2806L22.761 24.7831C22.5002 24.3349 21.9259 24.1839 21.478 24.4416L21.9716 25.299ZM7.85238 26.9324L8.81313 25.2813L7.95806 24.7838L6.99732 26.4348L7.85238 26.9324ZM7.83403 26.8603C7.85754 26.8738 7.86764 26.9061 7.85238 26.9324L6.99732 26.4348C6.73558 26.8846 6.89111 27.459 7.3405 27.7177L7.83403 26.8603ZM8.81879 27.4271L7.83403 26.8603L7.34051 27.7177L8.32527 28.2845L8.81879 27.4271ZM8.7532 27.4455C8.76754 27.4209 8.79684 27.4145 8.81879 27.4271L8.32527 28.2845C8.7731 28.5423 9.34746 28.3913 9.60827 27.9431L8.7532 27.4455ZM9.71395 25.7945L8.7532 27.4455L9.60827 27.9431L10.569 26.292L9.71395 25.7945ZM9.7323 25.8665C9.70879 25.853 9.69869 25.8207 9.71395 25.7945L10.569 26.292C10.8307 25.8422 10.6752 25.2678 10.2258 25.0091L9.7323 25.8665ZM8.74754 25.2997L9.7323 25.8665L10.2258 25.0091L9.24106 24.4423L8.74754 25.2997ZM8.81313 25.2813C8.79879 25.306 8.76948 25.3123 8.74754 25.2997L9.24107 24.4423C8.79324 24.1845 8.21887 24.3356 7.95806 24.7838L8.81313 25.2813Z" fill="#F04400" mask="url(#path-1-outside-1_1758_32724)"/>
</svg>
