<svg width="25" height="25" viewBox="0 0 25 25" fill="none" xmlns="http://www.w3.org/2000/svg">
<path d="M13 22.6875H18.5C19.0304 22.6875 19.5391 22.4768 19.9142 22.1017C20.2893 21.7266 20.5 21.2179 20.5 20.6875V7.6875L15.5 2.6875H6.5C5.96957 2.6875 5.46086 2.89821 5.08579 3.27329C4.71071 3.64836 4.5 4.15707 4.5 4.6875V14.1875M14.5 2.6875V6.6875C14.5 7.21793 14.7107 7.72664 15.0858 8.10171C15.4609 8.47679 15.9696 8.6875 16.5 8.6875H20.5M13.878 16.3135C14.0752 16.1163 14.2317 15.8821 14.3385 15.6244C14.4452 15.3667 14.5001 15.0904 14.5001 14.8115C14.5001 14.5326 14.4452 14.2563 14.3385 13.9986C14.2317 13.7409 14.0752 13.5067 13.878 13.3095C13.6808 13.1123 13.4466 12.9558 13.1889 12.849C12.9312 12.7423 12.6549 12.6874 12.376 12.6874C12.0971 12.6874 11.8208 12.7423 11.5631 12.849C11.3054 12.9558 11.0712 13.1123 10.874 13.3095L5.864 18.3215C5.62625 18.5591 5.45222 18.8528 5.358 19.1755L4.521 22.0455C4.4959 22.1315 4.4944 22.2228 4.51664 22.3096C4.53889 22.3964 4.58407 22.4757 4.64745 22.5391C4.71083 22.6024 4.79008 22.6476 4.87691 22.6699C4.96374 22.6921 5.05495 22.6906 5.141 22.6655L8.011 21.8285C8.33367 21.7343 8.62738 21.5603 8.865 21.3225L13.878 16.3135Z" stroke="black" stroke-width="2" stroke-linecap="round" stroke-linejoin="round"/>
</svg>
