<svg width="25" height="24" viewBox="0 0 25 24" fill="none" xmlns="http://www.w3.org/2000/svg">
<g clip-path="url(#clip0_210_3358)">
<path d="M12.4512 24C19.0786 24 24.4512 18.6274 24.4512 12C24.4512 5.37258 19.0786 0 12.4512 0C5.82375 0 0.451172 5.37258 0.451172 12C0.451172 18.6274 5.82375 24 12.4512 24Z" fill="#F05537"/>
<path d="M11.4651 7.75609C13.2742 7.35407 15.0833 8.09111 16.0883 9.49819L8.09254 11.3073C8.36055 9.58753 9.65596 8.15811 11.4651 7.75609ZM16.133 14.3895C15.5076 15.3052 14.5472 15.9529 13.4528 16.1986C11.6437 16.6006 9.8123 15.8636 8.80724 14.4341L16.8254 12.625L18.1208 12.3347L20.6223 11.7763C20.5999 11.2403 20.5329 10.7043 20.4212 10.1906C19.4162 5.87998 15.0163 3.17749 10.6163 4.18255C6.21643 5.18761 3.46927 9.47585 4.49666 13.8088C5.52406 18.1417 9.90164 20.8218 14.3016 19.8168C16.8924 19.2361 18.9025 17.494 19.9299 15.2829L16.133 14.3895Z" fill="white"/>
</g>
<defs>
<clipPath id="clip0_210_3358">
<rect width="24" height="24" fill="white" transform="translate(0.451172)"/>
</clipPath>
</defs>
</svg>
