<svg width="14" height="14" viewBox="0 0 14 14" fill="none" xmlns="http://www.w3.org/2000/svg">
<path d="M1.16797 12.2503C1.16797 10.5003 2.24714 9.12366 4.1313 8.75033C5.54297 8.47033 7.0013 7.58366 7.58464 7.00033M6.41797 11.667C5.39367 11.6701 4.40562 11.2881 3.64977 10.5968C2.89392 9.90552 2.4255 8.9554 2.3374 7.93489C2.2493 6.91438 2.54795 5.89804 3.17414 5.08742C3.80032 4.27681 4.70829 3.73115 5.71797 3.55866C9.04297 2.91699 9.91797 2.61366 11.0846 1.16699C11.668 2.33366 12.2513 3.60533 12.2513 5.83366C12.2513 9.04199 9.46297 11.667 6.41797 11.667Z" stroke="white" stroke-width="1.16667" stroke-linecap="round" stroke-linejoin="round"/>
</svg>
