<svg width="24" height="25" viewBox="0 0 24 25" fill="none" xmlns="http://www.w3.org/2000/svg">
<path d="M14.1102 23.1033C19.1196 23.1033 23.1804 19.0424 23.1804 14.0331C23.1804 9.02375 19.1196 4.96289 14.1102 4.96289C9.1009 4.96289 5.04004 9.02375 5.04004 14.0331C5.04004 19.0424 9.1009 23.1033 14.1102 23.1033Z" fill="#F04400"/>
<path d="M12 21.7197C16.9706 21.7197 21 17.6903 21 12.7197C21 7.74916 16.9706 3.71973 12 3.71973C7.02944 3.71973 3 7.74916 3 12.7197C3 17.6903 7.02944 21.7197 12 21.7197Z" fill="#FFA902"/>
<path d="M12 21.7197C16.9706 21.7197 21 17.6903 21 12.7197C21 7.74916 16.9706 3.71973 12 3.71973C7.02944 3.71973 3 7.74916 3 12.7197C3 17.6903 7.02944 21.7197 12 21.7197Z" fill="#FFA902"/>
<path fill-rule="evenodd" clip-rule="evenodd" d="M17.5572 5.63988C16.027 4.43711 14.0973 3.71973 12 3.71973C7.02944 3.71973 3 7.74916 3 12.7197C3 16.3009 5.09166 19.3936 8.11995 20.8427C6.23213 19.1805 5.04102 16.7457 5.04102 14.0327C5.04102 9.02332 9.10193 4.9624 14.1113 4.9624C15.3312 4.9624 16.4948 5.20321 17.5572 5.63988Z" fill="white"/>
<path d="M12 21.7197C16.9706 21.7197 21 17.6903 21 12.7197C21 7.74916 16.9706 3.71973 12 3.71973C7.02944 3.71973 3 7.74916 3 12.7197C3 17.6903 7.02944 21.7197 12 21.7197Z" stroke="#1E1E1E" stroke-width="2" stroke-linecap="round" stroke-linejoin="round"/>
<path d="M10.2002 10.0192C10.2001 9.73951 10.2652 9.46364 10.3904 9.21349C10.5155 8.96334 10.6972 8.74579 10.9211 8.57811C11.1449 8.41042 11.4048 8.29721 11.68 8.24746C11.9553 8.1977 12.2383 8.21278 12.5067 8.29148C12.7751 8.37019 13.0215 8.51036 13.2262 8.70087C13.431 8.89139 13.5886 9.127 13.6864 9.38903C13.7843 9.65106 13.8197 9.93228 13.79 10.2104C13.7602 10.4885 13.666 10.7558 13.5149 10.9912C12.9767 11.8282 12.0002 12.6256 12.0002 13.6192V14.0692M11.993 17.2192H12.0011" stroke="#1E1E1E" stroke-width="2" stroke-linecap="round" stroke-linejoin="round"/>
</svg>
