<svg width="61" height="60" viewBox="0 0 61 60" fill="none" xmlns="http://www.w3.org/2000/svg">
<path d="M26.25 52.5H13C11.6739 52.5 10.4021 51.9732 9.46447 51.0355C8.52678 50.0979 8 48.8261 8 47.5V12.5C8 11.1739 8.52678 9.90215 9.46447 8.96447C10.4021 8.02678 11.6739 7.5 13 7.5H48C49.3261 7.5 50.5979 8.02678 51.5355 8.96447C52.4732 9.90215 53 11.1739 53 12.5V37.5L45.25 29.75C44.3092 28.8279 43.0426 28.3144 41.7253 28.321C40.408 28.3275 39.1466 28.8536 38.215 29.785L15.5 52.5M35.5 48.75L43 41.25M43 41.25L50.5 48.75M43 41.25V55M28 22.5C28 25.2614 25.7614 27.5 23 27.5C20.2386 27.5 18 25.2614 18 22.5C18 19.7386 20.2386 17.5 23 17.5C25.7614 17.5 28 19.7386 28 22.5Z" stroke="#717A93" stroke-width="2" stroke-linecap="round" stroke-linejoin="round"/>
</svg>
