<svg width="24" height="24" viewBox="0 0 24 24" fill="none" xmlns="http://www.w3.org/2000/svg">
<g clip-path="url(#clip0_3355_11801)">
<path d="M12 19.001L5 12.001M5 12.001L12 5.00098M5 12.001L19 12.001" stroke="black" stroke-width="2" stroke-linecap="round" stroke-linejoin="round"/>
<path d="M19 16.0014L14.6569 16.0014L14.8284 16.173C16.3905 17.7351 16.3905 20.2678 14.8284 21.8299C13.2663 23.392 10.7337 23.392 9.17157 21.8299L2.17157 14.8299C0.609476 13.2678 0.609474 10.7351 2.17157 9.173L9.17157 2.173C10.7337 0.610905 13.2663 0.610906 14.8284 2.173C16.3905 3.7351 16.3905 6.26776 14.8284 7.82986L14.6569 8.00143L19 8.00143C21.2091 8.00143 23 9.79229 23 12.0014C23 14.2106 21.2091 16.0014 19 16.0014Z" stroke="black" stroke-width="2" stroke-linecap="round" stroke-linejoin="round"/>
</g>
<defs>
<clipPath id="clip0_3355_11801">
<rect width="24" height="24" fill="white"/>
</clipPath>
</defs>
</svg>
