<svg width="24" height="25" viewBox="0 0 24 25" fill="none" xmlns="http://www.w3.org/2000/svg">
<path d="M11.2144 17.5427C14.3806 17.5427 16.9473 15.1595 16.9473 12.2196C16.9473 9.27972 14.3806 6.89648 11.2144 6.89648C8.04816 6.89648 5.48145 9.27972 5.48145 12.2196C5.48145 15.1595 8.04816 17.5427 11.2144 17.5427Z" fill="#F04400"/>
<path d="M14 3.31476C13.5361 3.25035 13.0683 3.2186 12.6 3.21976C7.298 3.21976 3 7.24976 3 12.2198C3 17.1898 7.298 21.2198 12.6 21.2198C13.076 21.2198 13.5427 21.1881 14 21.1248M21 12.2198H11M21 12.2198C21 11.5198 19.006 10.2118 18.5 9.71976M21 12.2198C21 12.9198 19.006 14.2278 18.5 14.7198" stroke="#1E1E1E" stroke-width="2" stroke-linecap="round" stroke-linejoin="round"/>
</svg>
