<svg width="19" height="18" viewBox="0 0 19 18" fill="none" xmlns="http://www.w3.org/2000/svg">
<path d="M15.149 7.32498C15.149 10.9821 11.0919 14.7909 9.72954 15.9672C9.60263 16.0627 9.44813 16.1143 9.28934 16.1143C9.13054 16.1143 8.97605 16.0627 8.84913 15.9672C7.48676 14.7909 3.42969 10.9821 3.42969 7.32498C3.42969 5.77091 4.04704 4.28048 5.14594 3.18158C6.24484 2.08269 7.73526 1.46533 9.28934 1.46533C10.8434 1.46533 12.3338 2.08269 13.4327 3.18158C14.5316 4.28048 15.149 5.77091 15.149 7.32498Z" stroke="white" stroke-width="1.46491" stroke-linecap="round" stroke-linejoin="round"/>
<path d="M9.28934 9.52235C10.5029 9.52235 11.4867 8.53855 11.4867 7.32498C11.4867 6.11141 10.5029 5.12761 9.28934 5.12761C8.07576 5.12761 7.09197 6.11141 7.09197 7.32498C7.09197 8.53855 8.07576 9.52235 9.28934 9.52235Z" stroke="white" stroke-width="1.46491" stroke-linecap="round" stroke-linejoin="round"/>
</svg>
