<svg width="25" height="25" viewBox="0 0 25 25" fill="none" xmlns="http://www.w3.org/2000/svg">
<circle cx="12.0508" cy="14" r="7.5" fill="#FFA902"/>
<path d="M13.6568 21.4328C11.8305 21.6589 9.97869 21.3196 8.35107 20.4608C6.72344 19.602 5.39819 18.2649 4.5539 16.6297C3.7096 14.9945 3.38685 13.1398 3.62913 11.3156C3.87141 9.49127 4.66708 7.7851 5.90891 6.42696C7.15075 5.06882 8.77906 4.12398 10.5744 3.71978C12.3698 3.31558 14.2459 3.47144 15.95 4.16636C17.654 4.86127 19.1041 6.06185 20.1048 7.60629C21.1055 9.15073 21.6087 10.9648 21.5466 12.8041M12.5516 7.09955V12.4998L13.9574 13.2028M14.3517 17.9001L17.9519 14.2999M17.9519 14.2999L21.552 17.9001M17.9519 14.2999V21.5003" stroke="black" stroke-width="2" stroke-linecap="round" stroke-linejoin="round"/>
</svg>
