<svg width="29" height="30" viewBox="0 0 29 30" fill="none" xmlns="http://www.w3.org/2000/svg">
<path d="M22.8574 24.5498C22.8574 19.9341 19.1156 16.1924 14.5 16.1924C9.88432 16.1924 6.14258 19.9341 6.14258 24.5498C6.14258 27.2513 9.88432 28.458 14.5 28.458C19.1156 28.458 22.8574 27.6661 22.8574 24.5498Z" fill="#F04400"/>
<path d="M28 15C28 7.54415 21.9558 1.5 14.5 1.5C7.04415 1.5 1 7.54415 1 15C1 22.4558 7.04415 28.5 14.5 28.5C21.9558 28.5 28 22.4558 28 15Z" stroke="black" stroke-width="2"/>
<path d="M14.4994 8.54688C16.7789 8.54688 18.6268 8.07468 18.6268 7.49219C18.6268 6.9097 16.7789 6.4375 14.4994 6.4375C12.2199 6.4375 10.3721 6.9097 10.3721 7.49219C10.3721 8.07468 12.2199 8.54688 14.4994 8.54688Z" fill="#FFA902"/>
<path d="M14.5 16.0625C12.2457 16.0625 10.0837 16.958 8.48959 18.5521C6.89553 20.1462 6 22.3082 6 24.5625V25.2622M14.5 16.0625C17.434 16.0625 19.8125 13.684 19.8125 10.75C19.8125 7.81599 17.434 5.4375 14.5 5.4375C11.566 5.4375 9.1875 7.81599 9.1875 10.75C9.1875 13.684 11.566 16.0625 14.5 16.0625ZM14.5 16.0625C15.8622 16.0625 17.1907 16.3895 18.3806 17M15 21H26.3679M24.5 24H19M27.4328 18H21.5" stroke="black" stroke-width="2" stroke-linecap="round" stroke-linejoin="round"/>
</svg>
