<svg width="14" height="15" viewBox="0 0 14 15" fill="none" xmlns="http://www.w3.org/2000/svg">
<path d="M6.99997 12.6406H12.25M9.55263 3.0868C9.78485 2.85458 10.0998 2.72412 10.4282 2.72412C10.7566 2.72412 11.0716 2.85458 11.3038 3.0868C11.536 3.31902 11.6665 3.63398 11.6665 3.96238C11.6665 4.29079 11.536 4.60575 11.3038 4.83797L4.29797 11.8444C4.15919 11.9832 3.98765 12.0847 3.79922 12.1395L2.12388 12.6284C2.07369 12.643 2.02048 12.6439 1.96983 12.6309C1.91918 12.6179 1.87295 12.5916 1.83598 12.5546C1.799 12.5177 1.77265 12.4714 1.75967 12.4208C1.7467 12.3701 1.74758 12.3169 1.76222 12.2667L2.25105 10.5914C2.30601 10.4032 2.40753 10.2318 2.54622 10.0932L9.55263 3.0868Z" stroke="#717A93" stroke-width="1.16667" stroke-linecap="round" stroke-linejoin="round"/>
</svg>
