<svg width="26" height="25" viewBox="0 0 26 25" fill="none" xmlns="http://www.w3.org/2000/svg">
<path d="M20.5 10.1816C20.5 15.1746 14.961 20.3746 13.101 21.9806C12.9277 22.1109 12.7168 22.1814 12.5 22.1814C12.2832 22.1814 12.0723 22.1109 11.899 21.9806C10.039 20.3746 4.5 15.1746 4.5 10.1816C4.5 8.05991 5.34285 6.02508 6.84315 4.52479C8.34344 3.0245 10.3783 2.18164 12.5 2.18164C14.6217 2.18164 16.6566 3.0245 18.1569 4.52479C19.6571 6.02508 20.5 8.05991 20.5 10.1816Z" stroke="#F04400" stroke-width="2" stroke-linecap="round" stroke-linejoin="round"/>
<path d="M12.5 13.1816C14.1569 13.1816 15.5 11.8385 15.5 10.1816C15.5 8.52479 14.1569 7.18164 12.5 7.18164C10.8431 7.18164 9.5 8.52479 9.5 10.1816C9.5 11.8385 10.8431 13.1816 12.5 13.1816Z" stroke="#F04400" stroke-width="2" stroke-linecap="round" stroke-linejoin="round"/>
</svg>
