<svg width="18" height="19" viewBox="0 0 18 19" fill="none" xmlns="http://www.w3.org/2000/svg">
<path d="M15.0003 2.74994V5.74994M16.5003 4.24994H13.5003M3.00032 13.2499V14.7499M3.75032 13.9999H2.25032M7.45307 12.1249C7.38611 11.8654 7.25083 11.6285 7.06128 11.439C6.87174 11.2494 6.63487 11.1142 6.37532 11.0472L1.77407 9.86069C1.69557 9.83841 1.62648 9.79113 1.57728 9.72603C1.52808 9.66092 1.50146 9.58155 1.50146 9.49994C1.50146 9.41834 1.52808 9.33896 1.57728 9.27386C1.62648 9.20875 1.69557 9.16147 1.77407 9.13919L6.37532 7.95194C6.63478 7.88505 6.87159 7.74987 7.06112 7.56047C7.25066 7.37107 7.386 7.13436 7.45307 6.87494L8.63957 2.27369C8.66163 2.19488 8.70886 2.12545 8.77406 2.07599C8.83926 2.02653 8.91886 1.99976 9.0007 1.99976C9.08254 1.99976 9.16213 2.02653 9.22733 2.07599C9.29253 2.12545 9.33977 2.19488 9.36182 2.27369L10.5476 6.87494C10.6145 7.1345 10.7498 7.37137 10.9394 7.56091C11.1289 7.75045 11.3658 7.88573 11.6253 7.95269L16.2266 9.13844C16.3057 9.16027 16.3755 9.20745 16.4252 9.27275C16.4749 9.33805 16.5019 9.41786 16.5019 9.49994C16.5019 9.58202 16.4749 9.66183 16.4252 9.72713C16.3755 9.79244 16.3057 9.83962 16.2266 9.86144L11.6253 11.0472C11.3658 11.1142 11.1289 11.2494 10.9394 11.439C10.7498 11.6285 10.6145 11.8654 10.5476 12.1249L9.36107 16.7262C9.33902 16.805 9.29178 16.8744 9.22658 16.9239C9.16138 16.9734 9.08179 17.0001 8.99995 17.0001C8.91811 17.0001 8.83851 16.9734 8.77331 16.9239C8.70811 16.8744 8.66088 16.805 8.63882 16.7262L7.45307 12.1249Z" stroke="white" stroke-width="1.5" stroke-linecap="round" stroke-linejoin="round"/>
</svg>
