<svg width="42" height="42" viewBox="0 0 42 42" fill="none" xmlns="http://www.w3.org/2000/svg">
<path d="M21 3.11719C24.9471 3.11719 28.7323 4.68543 31.5234 7.47656L31.7822 7.74023C34.4118 10.5036 35.8828 14.1762 35.8828 18L35.876 18.4414C35.7233 22.9943 33.2421 27.2796 30.791 30.5C28.194 33.9121 25.2528 36.6127 23.7852 37.8799C23.7361 37.9223 23.6856 37.963 23.6338 38.002C22.9722 38.4995 22.1827 38.8006 21.3564 38.8682L21 38.8828C20.0458 38.8828 19.1224 38.5706 18.3662 38.002C18.3144 37.963 18.2639 37.9223 18.2148 37.8799C16.7472 36.6127 13.806 33.9121 11.209 30.5C8.67881 27.1757 6.11719 22.7167 6.11719 18C6.11719 14.0529 7.68543 10.2677 10.4766 7.47656C13.2677 4.68543 17.0529 3.11719 21 3.11719ZM21 16.3809C20.1069 16.3809 19.3828 17.105 19.3828 17.998C19.3828 18.8911 20.1069 19.6152 21 19.6152C21.8931 19.6152 22.6172 18.8911 22.6172 17.998C22.6172 17.105 21.8931 16.3809 21 16.3809Z" fill="#F04400"/>
<path d="M33 18C33 14.8174 31.7358 11.7651 29.4854 9.51465C27.2349 7.26421 24.1826 6 21 6C17.8174 6 14.7651 7.26421 12.5146 9.51465C10.2642 11.7651 9 14.8174 9 18C9 25.4895 17.3086 33.2892 20.0986 35.6982C20.3585 35.8937 20.6748 36 21 36C21.3252 36 21.6415 35.8937 21.9014 35.6982C24.6914 33.2892 33 25.4895 33 18ZM22.6172 17.998C22.6172 17.105 21.8931 16.3809 21 16.3809C20.1069 16.3809 19.3828 17.105 19.3828 17.998C19.3828 18.8911 20.1069 19.6152 21 19.6152V22.498C18.5147 22.498 16.5 20.4833 16.5 17.998C16.5 15.5128 18.5147 13.498 21 13.498C23.4853 13.498 25.5 15.5128 25.5 17.998C25.5 20.4833 23.4853 22.498 21 22.498V19.6152C21.8931 19.6152 22.6172 18.8911 22.6172 17.998ZM35.876 18.4414C35.7233 22.9943 33.2421 27.2796 30.791 30.5C28.5187 33.4854 25.983 35.9263 24.4014 37.3389L23.7852 37.8799L23.6338 38.002C22.9722 38.4995 22.1827 38.8006 21.3564 38.8682L21 38.8828C20.165 38.8828 19.3537 38.6438 18.6572 38.2031L18.3662 38.002C18.3144 37.963 18.2639 37.9223 18.2148 37.8799C16.7472 36.6127 13.806 33.9121 11.209 30.5C8.75787 27.2796 6.27666 22.9943 6.12402 18.4414L6.11719 18C6.11719 14.0529 7.68543 10.2677 10.4766 7.47656L10.7402 7.21777C13.5036 4.58819 17.1762 3.11719 21 3.11719L21.3691 3.12207C25.1825 3.21658 28.8194 4.77256 31.5234 7.47656L31.7822 7.74023C34.4118 10.5036 35.8828 14.1762 35.8828 18L35.876 18.4414Z" fill="white"/>
</svg>
