<svg width="26" height="26" viewBox="0 0 26 26" fill="none" xmlns="http://www.w3.org/2000/svg">
<path d="M20.5 10.9424C20.5 15.9354 14.961 21.1354 13.101 22.7414C12.9277 22.8717 12.7168 22.9421 12.5 22.9421C12.2832 22.9421 12.0723 22.8717 11.899 22.7414C10.039 21.1354 4.5 15.9354 4.5 10.9424C4.5 8.82065 5.34285 6.78582 6.84315 5.28553C8.34344 3.78524 10.3783 2.94238 12.5 2.94238C14.6217 2.94238 16.6566 3.78524 18.1569 5.28553C19.6571 6.78582 20.5 8.82065 20.5 10.9424Z" stroke="#717A93" stroke-width="2" stroke-linecap="round" stroke-linejoin="round"/>
<path d="M12.5 13.9424C14.1569 13.9424 15.5 12.5992 15.5 10.9424C15.5 9.28553 14.1569 7.94238 12.5 7.94238C10.8431 7.94238 9.5 9.28553 9.5 10.9424C9.5 12.5992 10.8431 13.9424 12.5 13.9424Z" stroke="#717A93" stroke-width="2" stroke-linecap="round" stroke-linejoin="round"/>
</svg>
