<svg width="25" height="24" viewBox="0 0 25 24" fill="none" xmlns="http://www.w3.org/2000/svg">
<path d="M21.5 16H18.5C17.9696 16 17.4609 16.2107 17.0858 16.5858C16.7107 16.9609 16.5 17.4696 16.5 18V21M21.5 21V21.01M12.5 7V10C12.5 10.5304 12.2893 11.0391 11.9142 11.4142C11.5391 11.7893 11.0304 12 10.5 12H7.5M3.5 12H3.51M12.5 3H12.51M12.5 16V16.01M16.5 12H17.5M21.5 12V12.01M12.5 21V20M4.5 3H7.5C8.05228 3 8.5 3.44772 8.5 4V7C8.5 7.55228 8.05228 8 7.5 8H4.5C3.94772 8 3.5 7.55228 3.5 7V4C3.5 3.44772 3.94772 3 4.5 3ZM17.5 3H20.5C21.0523 3 21.5 3.44772 21.5 4V7C21.5 7.55228 21.0523 8 20.5 8H17.5C16.9477 8 16.5 7.55228 16.5 7V4C16.5 3.44772 16.9477 3 17.5 3ZM4.5 16H7.5C8.05228 16 8.5 16.4477 8.5 17V20C8.5 20.5523 8.05228 21 7.5 21H4.5C3.94772 21 3.5 20.5523 3.5 20V17C3.5 16.4477 3.94772 16 4.5 16Z" stroke="black" stroke-width="2" stroke-linecap="round" stroke-linejoin="round"/>
</svg>
