<svg width="33" height="33" viewBox="0 0 33 33" fill="none" xmlns="http://www.w3.org/2000/svg">
<rect x="0.5" y="0.244141" width="32" height="32" rx="5" fill="#FFEECC"/>
<path d="M13.5 24.7393H22.5C23.0523 24.7393 23.5 24.2915 23.5 23.7393V13.7393C23.5 13.187 23.0523 12.7393 22.5 12.7393H13.5C12.9477 12.7393 12.5 13.187 12.5 13.7393V23.7393C12.5 24.2915 12.9477 24.7393 13.5 24.7393Z" fill="#FFA902"/>
<path d="M14.4033 11.7395H18.5975V7.44824H14.4033V11.7395Z" fill="#F04400"/>
<path d="M19.8982 9.44805H21.5973C22.0479 9.44805 22.48 9.62705 22.7987 9.94568C23.1173 10.2643 23.2963 10.6965 23.2963 11.1471V23.0402C23.2963 23.4908 23.1173 23.923 22.7987 24.2416C22.48 24.5603 22.0479 24.7393 21.5973 24.7393H11.4031C10.9525 24.7393 10.5204 24.5603 10.2017 24.2416C9.88311 23.923 9.7041 23.4908 9.7041 23.0402V11.1471C9.7041 10.6965 9.88311 10.2643 10.2017 9.94568C10.5204 9.62705 10.9525 9.44805 11.4031 9.44805H13.1021M13.9517 17.9432L15.6507 19.6422L19.0487 16.2441M13.9517 7.74902H19.0487C19.5179 7.74902 19.8982 8.12936 19.8982 8.59854V10.2976C19.8982 10.7667 19.5179 11.1471 19.0487 11.1471H13.9517C13.4825 11.1471 13.1021 10.7667 13.1021 10.2976V8.59854C13.1021 8.12936 13.4825 7.74902 13.9517 7.74902Z" stroke="black" stroke-width="1.69902" stroke-linecap="round" stroke-linejoin="round"/>
<path d="M13.9512 17.9432L15.6502 19.6422L19.0482 16.2441" stroke="black" stroke-width="1.69902" stroke-linecap="round" stroke-linejoin="round"/>
</svg>
