<svg width="24" height="24" viewBox="0 0 24 24" fill="none" xmlns="http://www.w3.org/2000/svg">
<path d="M21 7V4C21 3.44772 20.5523 3 20 3H17C16.4477 3 16 3.44772 16 4M9 12H7M3 12H3.01M12 3H12.01M12 6.5H12.01M4 3H7C7.55228 3 8 3.44772 8 4V7C8 7.55228 7.55228 8 7 8H4C3.44772 8 3 7.55228 3 7V4C3 3.44772 3.44772 3 4 3ZM4 16H6C6.55228 16 7 16.4477 7 17V20C7 20.5523 6.55228 21 6 21H4C3.44772 21 3 20.5523 3 20V17C3 16.4477 3.44772 16 4 16Z" stroke="black" stroke-width="2" stroke-linecap="round" stroke-linejoin="round"/>
<path d="M20.9996 21C20.9996 19.636 20.4577 18.3279 19.4933 17.3635C18.5288 16.399 17.2207 15.8571 15.8567 15.8571M15.8567 15.8571C14.4928 15.8571 13.1846 16.399 12.2202 17.3635C11.2557 18.3279 10.7139 19.636 10.7139 21M15.8567 15.8571C17.7503 15.8571 19.2853 14.3221 19.2853 12.4286C19.2853 10.535 17.7503 9 15.8567 9C13.9632 9 12.4282 10.535 12.4282 12.4286C12.4282 14.3221 13.9632 15.8571 15.8567 15.8571Z" stroke="black" stroke-width="2" stroke-linecap="round" stroke-linejoin="round"/>
</svg>
