<svg width="37" height="37" viewBox="0 0 37 37" fill="none" xmlns="http://www.w3.org/2000/svg">
<path d="M4.55957 9.65769C4.55957 7.50946 4.55957 6.43533 5.22694 5.76796C5.89432 5.10059 6.96844 5.10059 9.11668 5.10059C11.2649 5.10059 12.339 5.10059 13.0064 5.76796C13.6738 6.43533 13.6738 7.50946 13.6738 9.65769C13.6738 11.8059 13.6738 12.8801 13.0064 13.5474C12.339 14.2148 11.2649 14.2148 9.11668 14.2148C6.96844 14.2148 5.89432 14.2148 5.22694 13.5474C4.55957 12.8801 4.55957 11.8059 4.55957 9.65769Z" stroke="black" stroke-width="2"/>
<path d="M4.55957 27.8862C4.55957 25.738 4.55957 24.6639 5.22694 23.9964C5.89432 23.3291 6.96844 23.3291 9.11668 23.3291C11.2649 23.3291 12.339 23.3291 13.0064 23.9964C13.6738 24.6639 13.6738 25.738 13.6738 27.8862C13.6738 30.0344 13.6738 31.1085 13.0064 31.776C12.339 32.4433 11.2649 32.4433 9.11668 32.4433C6.96844 32.4433 5.89432 32.4433 5.22694 31.776C4.55957 31.1085 4.55957 30.0344 4.55957 27.8862Z" stroke="black" stroke-width="2"/>
<path d="M4.55957 18.7715H13.6738" stroke="black" stroke-width="2" stroke-linecap="round" stroke-linejoin="round"/>
<path d="M18.2314 5.10059V12.6958" stroke="black" stroke-width="2" stroke-linecap="round" stroke-linejoin="round"/>
<path d="M22.7886 9.65769C22.7886 7.50946 22.7886 6.43533 23.4559 5.76796C24.1233 5.10059 25.1975 5.10059 27.3457 5.10059C29.4939 5.10059 30.568 5.10059 31.2355 5.76796C31.9028 6.43533 31.9028 7.50946 31.9028 9.65769C31.9028 11.8059 31.9028 12.8801 31.2355 13.5474C30.568 14.2148 29.4939 14.2148 27.3457 14.2148C25.1975 14.2148 24.1233 14.2148 23.4559 13.5474C22.7886 12.8801 22.7886 11.8059 22.7886 9.65769Z" stroke="black" stroke-width="2"/>
<path d="M31.9028 18.7715H22.7886C20.6403 18.7715 19.5662 18.7715 18.8988 19.4388C18.2314 20.1063 18.2314 21.1804 18.2314 23.3286M18.2314 27.5351V31.7418M22.7886 23.3286V25.6071C22.7886 27.8043 23.979 27.8857 25.8266 27.8857C26.6656 27.8857 27.3457 28.5658 27.3457 29.4047M24.3076 32.4428H22.7886M27.3457 23.3286C29.4939 23.3286 30.568 23.3286 31.2355 23.997C31.9028 24.6652 31.9028 25.741 31.9028 27.8922C31.9028 30.0436 31.9028 31.1193 31.2355 31.7876C30.7483 32.2754 30.0445 32.4073 28.8647 32.4428" stroke="black" stroke-width="2" stroke-linecap="round"/>
</svg>
