<svg width="29" height="30" viewBox="0 0 29 30" fill="none" xmlns="http://www.w3.org/2000/svg">
<path d="M28 15C28 7.54415 21.9558 1.5 14.5 1.5C7.04415 1.5 1 7.54415 1 15C1 22.4558 7.04415 28.5 14.5 28.5C21.9558 28.5 28 22.4558 28 15Z" stroke="#AAAFBE" stroke-width="2"/>
<path d="M16.9171 7.33625V19.6784C16.9171 20.2016 16.9171 20.4632 16.8596 20.6778C16.7036 21.2602 16.2487 21.7151 15.6662 21.8712C15.4516 21.9287 15.19 21.9287 14.6668 21.9287C14.1436 21.9287 13.882 21.9287 13.6675 21.8712C13.085 21.7151 12.6301 21.2602 12.474 20.6778C12.4165 20.4632 12.4165 20.2016 12.4165 19.6784V7.33625C12.4165 6.81305 12.4165 6.55145 12.474 6.33689C12.6301 5.75439 13.085 5.29949 13.6675 5.14343C13.882 5.08594 14.1436 5.08594 14.6668 5.08594C15.19 5.08594 15.4516 5.08594 15.6662 5.14343C16.2487 5.29949 16.7036 5.75439 16.8596 6.33689C16.9171 6.55145 16.9171 6.81305 16.9171 7.33625Z" stroke="#AAAFBE" stroke-width="2.31945" stroke-linecap="round" stroke-linejoin="round"/>
<path d="M24.7941 18.5878V19.6784C24.7941 20.2016 24.7941 20.4632 24.7366 20.6778C24.5805 21.2602 24.1256 21.7151 23.5431 21.8712C23.3286 21.9287 23.067 21.9287 22.5438 21.9287C22.0206 21.9287 21.759 21.9287 21.5444 21.8712C20.9619 21.7151 20.507 21.2602 20.351 20.6778C20.2935 20.4632 20.2935 20.2016 20.2935 19.6784V18.5878C20.2935 18.0646 20.2935 17.803 20.351 17.5884C20.507 17.006 20.9619 16.5511 21.5444 16.395C21.759 16.3375 22.0206 16.3375 22.5438 16.3375C23.067 16.3375 23.3286 16.3375 23.5431 16.395C24.1256 16.5511 24.5805 17.006 24.7366 17.5884C24.7941 17.803 24.7941 18.0646 24.7941 18.5878Z" stroke="#AAAFBE" stroke-width="2.31945" stroke-linecap="round" stroke-linejoin="round"/>
<path d="M9.04164 14.0872V19.6784C9.04164 20.2016 9.04164 20.4632 8.98413 20.6778C8.82808 21.2602 8.37315 21.7151 7.79073 21.8712C7.5761 21.9287 7.31451 21.9287 6.79133 21.9287C6.26814 21.9287 6.00655 21.9287 5.79193 21.8712C5.2095 21.7151 4.75458 21.2602 4.59852 20.6778C4.54102 20.4632 4.54102 20.2016 4.54102 19.6784V14.0872C4.54102 13.564 4.54102 13.3024 4.59852 13.0878C4.75458 12.5053 5.2095 12.0504 5.79193 11.8944C6.00655 11.8369 6.26814 11.8369 6.79133 11.8369C7.31451 11.8369 7.5761 11.8369 7.79073 11.8944C8.37315 12.0504 8.82808 12.5053 8.98413 13.0878C9.04164 13.3024 9.04164 13.564 9.04164 14.0872Z" stroke="#AAAFBE" stroke-width="2.31945" stroke-linecap="round" stroke-linejoin="round"/>
</svg>
