<svg width="73" height="29" viewBox="0 0 73 29" fill="none" xmlns="http://www.w3.org/2000/svg">
<path fill-rule="evenodd" clip-rule="evenodd" d="M36.2537 28.5005V0H42.5406V28.5005H36.2537ZM44.2176 28.5005V0H50.5045V28.5005H44.2176ZM6.28688 18.6382C6.28688 16.6707 7.88189 15.0757 9.84944 15.0757H12.6785V8.78878H9.84944C4.40975 8.78878 0 13.1985 0 18.6382V28.5008H6.28688V18.6382ZM61.0397 28.9754C59.4863 28.9754 57.9823 28.5686 56.5275 27.7549C55.0728 26.9166 53.8892 25.733 52.9769 24.2043C52.0646 22.6509 51.6085 20.8756 51.6085 18.8784C51.6085 16.8566 52.0646 15.0813 52.9769 13.5526C53.8892 11.9992 55.0728 10.8157 56.5275 10.002C57.9823 9.16366 59.4863 8.74449 61.0397 8.74449C62.0753 8.74449 63.0123 8.86778 63.8506 9.11434C64.6889 9.36091 65.4163 9.71844 66.0327 10.1869C66.4074 10.4463 66.7526 10.7436 67.0683 11.0788V9.2253H72.875V28.4946H67.0683V26.6462C66.4755 27.2872 65.7851 27.8048 64.9971 28.1987C63.9122 28.7165 62.5931 28.9754 61.0397 28.9754ZM62.3712 23.4276C63.2342 23.4276 64.0109 23.2304 64.7013 22.8359C65.4163 22.4414 65.9588 21.8989 66.3286 21.2085C66.7231 20.5181 66.9204 19.7414 66.9204 18.8784C66.9204 18.0155 66.7231 17.2388 66.3286 16.5484C65.9588 15.858 65.4163 15.3155 64.7013 14.921C64.0109 14.5019 63.2342 14.2923 62.3712 14.2923C61.5082 14.2923 60.7192 14.5019 60.0041 14.921C59.3137 15.3155 58.7713 15.858 58.3768 16.5484C58.0069 17.2388 57.822 18.0155 57.822 18.8784C57.822 19.7414 58.0069 20.5181 58.3768 21.2085C58.7713 21.8989 59.3137 22.4414 60.0041 22.8359C60.7192 23.2304 61.5082 23.4276 62.3712 23.4276ZM17.9683 27.7549C19.4231 28.5686 20.9271 28.9754 22.4805 28.9754C24.0339 28.9754 25.353 28.7165 26.4379 28.1987C27.2259 27.8048 27.9162 27.2872 28.5091 26.6462V28.4946H34.3158V9.2253H28.5091V11.0788C28.1934 10.7436 27.8482 10.4463 27.4735 10.1869C26.8571 9.71844 26.1297 9.36091 25.2914 9.11434C24.453 8.86778 23.5161 8.74449 22.4805 8.74449C20.9271 8.74449 19.4231 9.16366 17.9683 10.002C16.5135 10.8157 15.33 11.9992 14.4177 13.5526C13.5054 15.0813 13.0493 16.8566 13.0493 18.8784C13.0493 20.8756 13.5054 22.6509 14.4177 24.2043C15.33 25.733 16.5135 26.9166 17.9683 27.7549ZM26.142 22.8359C25.4516 23.2304 24.675 23.4276 23.812 23.4276C22.949 23.4276 22.16 23.2304 21.4449 22.8359C20.7545 22.4414 20.2121 21.8989 19.8176 21.2085C19.4477 20.5181 19.2628 19.7414 19.2628 18.8784C19.2628 18.0155 19.4477 17.2388 19.8176 16.5484C20.2121 15.858 20.7545 15.3155 21.4449 14.921C22.16 14.5019 22.949 14.2923 23.812 14.2923C24.675 14.2923 25.4516 14.5019 26.142 14.921C26.8571 15.3155 27.3995 15.858 27.7694 16.5484C28.1639 17.2388 28.3612 18.0155 28.3612 18.8784C28.3612 19.7414 28.1639 20.5181 27.7694 21.2085C27.3995 21.8989 26.8571 22.4414 26.142 22.8359Z" fill="white"/>
</svg>
