<svg width="25" height="24" viewBox="0 0 25 24" fill="none" xmlns="http://www.w3.org/2000/svg">
<path d="M12.8333 1.5C7.03488 1.5 2.33331 6.20156 2.33331 12C2.33331 17.7984 7.03488 22.5 12.8333 22.5C18.6318 22.5 23.3333 17.7984 23.3333 12C23.3333 6.20156 18.6318 1.5 12.8333 1.5ZM16.7474 16.35C15.7958 17.2266 14.4974 17.7422 12.9482 17.7422C10.7052 17.7422 8.76456 16.4555 7.82003 14.5805C7.43097 13.8047 7.20831 12.9281 7.20831 12C7.20831 11.0719 7.43097 10.1953 7.82003 9.41953C8.76456 7.54219 10.7052 6.25547 12.9482 6.25547C14.495 6.25547 15.7935 6.825 16.7896 7.75078L15.1442 9.39844C14.5489 8.82891 13.7919 8.54062 12.9505 8.54062C11.4552 8.54062 10.1896 9.55078 9.73722 10.9078C9.62238 11.2523 9.55675 11.6203 9.55675 12C9.55675 12.3797 9.62238 12.7477 9.73722 13.0922C10.1896 14.4492 11.4552 15.4594 12.9482 15.4594C13.7216 15.4594 14.3778 15.2555 14.8911 14.9109C15.5005 14.5031 15.9036 13.8961 16.0372 13.1766H12.9482V10.9547H18.3552C18.4232 11.332 18.4583 11.7234 18.4583 12.1289C18.4583 13.8797 17.8325 15.3492 16.7474 16.35Z" fill="black"/>
</svg>
