<svg width="25" height="24" viewBox="0 0 25 24" fill="none" xmlns="http://www.w3.org/2000/svg">
<path d="M17.5497 20.28C16.5697 21.23 15.4997 21.08 14.4697 20.63C13.3797 20.17 12.3797 20.15 11.2297 20.63C9.78974 21.25 9.02974 21.07 8.16974 20.28C3.28974 15.25 4.00974 7.59 9.54974 7.31C10.8997 7.38 11.8397 8.05 12.6297 8.11C13.8097 7.87 14.9397 7.18 16.1997 7.27C17.7097 7.39 18.8497 7.99 19.5997 9.07C16.4797 10.94 17.2197 15.05 20.0797 16.2C19.5097 17.7 18.7697 19.19 17.5397 20.29L17.5497 20.28ZM12.5297 7.25C12.3797 5.02 14.1897 3.18 16.2697 3C16.5597 5.58 13.9297 7.5 12.5297 7.25Z" fill="black"/>
</svg>
