<svg width="32" height="32" viewBox="0 0 32 32" fill="none" xmlns="http://www.w3.org/2000/svg">
<rect width="32" height="32" rx="5" fill="#FFEECC"/>
<path d="M13 24.4961H22C22.5523 24.4961 23 24.0484 23 23.4961V13.4961C23 12.9438 22.5523 12.4961 22 12.4961H13C12.4477 12.4961 12 12.9438 12 13.4961V23.4961C12 24.0484 12.4477 24.4961 13 24.4961Z" fill="#FFA902"/>
<path d="M13.9023 11.4943H18.0965V7.20312H13.9023V11.4943Z" fill="#F04400"/>
<path d="M19.3973 9.20293H21.0963C21.5469 9.20293 21.9791 9.38193 22.2977 9.70056C22.6163 10.0192 22.7953 10.4513 22.7953 10.902V22.7951C22.7953 23.2457 22.6163 23.6779 22.2977 23.9965C21.9791 24.3151 21.5469 24.4941 21.0963 24.4941H10.9021C10.4515 24.4941 10.0194 24.3151 9.70076 23.9965C9.38213 23.6779 9.20313 23.2457 9.20312 22.7951V10.902C9.20312 10.4513 9.38213 10.0192 9.70076 9.70056C10.0194 9.38193 10.4515 9.20293 10.9021 9.20293H12.6012M13.4507 17.698L15.1497 19.3971L18.5478 15.999M13.4507 7.50391H18.5478C19.0169 7.50391 19.3973 7.88425 19.3973 8.35342V10.0524C19.3973 10.5216 19.0169 10.902 18.5478 10.902H13.4507C12.9815 10.902 12.6012 10.5216 12.6012 10.0524V8.35342C12.6012 7.88425 12.9815 7.50391 13.4507 7.50391Z" stroke="black" stroke-width="1.69902" stroke-linecap="round" stroke-linejoin="round"/>
<path d="M13.4512 17.699L15.1502 19.398L18.5482 16" stroke="black" stroke-width="1.69902" stroke-linecap="round" stroke-linejoin="round"/>
</svg>
