<svg width="61" height="24" viewBox="0 0 61 24" fill="none" xmlns="http://www.w3.org/2000/svg">
<path fill-rule="evenodd" clip-rule="evenodd" d="M30.3484 23.5754V0.0321045H35.5418V23.5754H30.3484ZM36.9271 23.5754V0.0321045H42.1205V23.5754H36.9271ZM5.59377 15.4285C5.59377 13.8032 6.91136 12.4856 8.53669 12.4856H10.8737V7.29222H8.53669C4.04313 7.29222 0.400391 10.935 0.400391 15.4285V23.5756H5.59377V15.4285ZM50.8233 23.9677C49.5401 23.9677 48.2976 23.6317 47.0959 22.9595C45.8942 22.267 44.9165 21.2893 44.1629 20.0265C43.4093 18.7433 43.0324 17.2768 43.0324 15.627C43.0324 13.9568 43.4093 12.4903 44.1629 11.2274C44.9165 9.94424 45.8942 8.96657 47.0959 8.29442C48.2976 7.6019 49.5401 7.25564 50.8233 7.25564C51.6787 7.25564 52.4527 7.35748 53.1453 7.56116C53.8378 7.76484 54.4386 8.06018 54.9478 8.44718C55.2573 8.66145 55.5425 8.90703 55.8033 9.18392V7.65282H60.6V23.5706H55.8033V22.0436C55.3136 22.5732 54.7433 23.0007 54.0924 23.3261C53.1962 23.7539 52.1065 23.9677 50.8233 23.9677ZM51.9232 19.3849C52.636 19.3849 53.2776 19.2219 53.8479 18.8961C54.4386 18.5702 54.8867 18.1221 55.1923 17.5518C55.5181 16.9814 55.6811 16.3398 55.6811 15.627C55.6811 14.9141 55.5181 14.2725 55.1923 13.7022C54.8867 13.1319 54.4386 12.6838 53.8479 12.3579C53.2776 12.0116 52.636 11.8385 51.9232 11.8385C51.2103 11.8385 50.5585 12.0116 49.9678 12.3579C49.3975 12.6838 48.9494 13.1319 48.6235 13.7022C48.318 14.2725 48.1652 14.9141 48.1652 15.627C48.1652 16.3398 48.318 16.9814 48.6235 17.5518C48.9494 18.1221 49.3975 18.5702 49.9678 18.8961C50.5585 19.2219 51.2103 19.3849 51.9232 19.3849ZM15.2434 22.9595C16.4451 23.6317 17.6876 23.9677 18.9708 23.9677C20.254 23.9677 21.3437 23.7539 22.2399 23.3261C22.8908 23.0007 23.4611 22.5732 23.9508 22.0436V23.5706H28.7475V7.65282H23.9508V9.18392C23.69 8.90703 23.4048 8.66145 23.0953 8.44718C22.5861 8.06018 21.9853 7.76484 21.2928 7.56116C20.6002 7.35748 19.8262 7.25564 18.9708 7.25564C17.6876 7.25564 16.4451 7.6019 15.2434 8.29442C14.0417 8.96657 13.064 9.94424 12.3104 11.2274C11.5568 12.4903 11.18 13.9568 11.18 15.627C11.18 17.2768 11.5568 18.7433 12.3104 20.0265C13.064 21.2893 14.0417 22.267 15.2434 22.9595ZM21.9955 18.8961C21.4251 19.2219 20.7836 19.3849 20.0707 19.3849C19.3578 19.3849 18.706 19.2219 18.1153 18.8961C17.545 18.5702 17.0969 18.1221 16.771 17.5518C16.4655 16.9814 16.3127 16.3398 16.3127 15.627C16.3127 14.9141 16.4655 14.2725 16.771 13.7022C17.0969 13.1319 17.545 12.6838 18.1153 12.3579C18.706 12.0116 19.3578 11.8385 20.0707 11.8385C20.7836 11.8385 21.4251 12.0116 21.9955 12.3579C22.5861 12.6838 23.0342 13.1319 23.3398 13.7022C23.6656 14.2725 23.8286 14.9141 23.8286 15.627C23.8286 16.3398 23.6656 16.9814 23.3398 17.5518C23.0342 18.1221 22.5861 18.5702 21.9955 18.8961Z" fill="white"/>
</svg>
