<svg width="17" height="17" viewBox="0 0 17 17" fill="none" xmlns="http://www.w3.org/2000/svg">
<path d="M8.49702 6.50023V9.1669M8.49702 11.8336H8.50369M14.9837 12.5002L9.65036 3.1669C9.53407 2.9617 9.36543 2.79102 9.16164 2.67228C8.95785 2.55353 8.72622 2.49097 8.49036 2.49097C8.2545 2.49097 8.02286 2.55353 7.81907 2.67228C7.61529 2.79102 7.44665 2.9617 7.33036 3.1669L1.99702 12.5002C1.87948 12.7038 1.81784 12.9348 1.81836 13.1699C1.81888 13.405 1.88154 13.6357 1.99999 13.8388C2.11843 14.0418 2.28846 14.21 2.49282 14.3261C2.69719 14.4423 2.92863 14.5023 3.16369 14.5002H13.8304C14.0643 14.5 14.294 14.4382 14.4965 14.3211C14.699 14.204 14.8672 14.0356 14.984 13.833C15.1009 13.6303 15.1624 13.4005 15.1623 13.1666C15.1623 12.9326 15.1007 12.7028 14.9837 12.5002Z" stroke="#F00000" stroke-width="1.33333" stroke-linecap="round" stroke-linejoin="round"/>
</svg>
