<svg width="25" height="25" viewBox="0 0 25 25" fill="none" xmlns="http://www.w3.org/2000/svg">
<circle cx="10.4625" cy="14.0879" r="7.41176" fill="#FFA902"/>
<path d="M20.8696 10.7031C21.2806 12.7202 20.9877 14.8173 20.0396 16.6447C19.0916 18.472 17.5458 19.9191 15.6599 20.7446C13.7741 21.5702 11.6622 21.7243 9.67654 21.1812C7.69084 20.6381 5.95134 19.4307 4.74812 17.7603C3.5449 16.09 2.95068 14.0576 3.06457 12.0021C3.17846 9.94664 3.99356 7.99234 5.37396 6.46512C6.75435 4.93789 8.61659 3.93005 10.6501 3.60967C12.6837 3.2893 14.7656 3.67574 16.5487 4.70457M9.34867 11.6031L12.0487 14.3031L21.0487 5.30306" stroke="black" stroke-width="2" stroke-linecap="round" stroke-linejoin="round"/>
</svg>
